<svg width="22" height="26" viewBox="0 0 22 26" fill="none" xmlns="http://www.w3.org/2000/svg">
<path fill-rule="evenodd" clip-rule="evenodd" d="M1 9.74433C1 5.1961 3.79443 1.5 7.25 1.5C8.65702 1.5 9.95603 2.11434 11 3.14841C12.044 2.11434 13.343 1.5 14.75 1.5C18.2056 1.5 21 5.1961 21 9.74433C21 11.4429 20.3668 13.0937 19.6673 14.4386C18.9523 15.8134 18.075 17.0424 17.4096 17.9207L13.4321 23.1707C12.0894 24.9431 9.91065 24.9431 8.5679 23.1707L4.59042 17.9207C3.9139 17.0277 3.03621 15.7984 2.32375 14.4266C1.62592 13.083 1 11.4408 1 9.74433Z" fill="white" stroke="black" stroke-width="2" stroke-linecap="round" stroke-linejoin="round"/>
</svg>
