<svg width="20" height="24" viewBox="0 0 20 24" fill="none" xmlns="http://www.w3.org/2000/svg">
<path d="M11.1111 17.1111C11.1111 17.8168 10.6137 18.3889 10 18.3889C9.38635 18.3889 8.88889 17.8168 8.88889 17.1111C8.88889 16.4054 9.38635 15.8333 10 15.8333C10.6137 15.8333 11.1111 16.4054 11.1111 17.1111Z" fill="black"/>
<path d="M8.33333 9.44444C8.33333 8.3859 9.07953 7.52778 10 7.52778C10.9205 7.52778 11.6667 8.3859 11.6667 9.44444C11.6667 9.82045 11.4908 10.0273 10.7926 10.5545L10.7205 10.6087C10.1525 11.0345 9.16667 11.7736 9.16667 13.2667V13.6C9.16667 14.1293 9.53976 14.5584 10 14.5584C10.4602 14.5584 10.8333 14.1293 10.8333 13.6V13.2667C10.8333 12.8907 11.0092 12.6838 11.7074 12.1567L11.7795 12.1025C12.3475 11.6767 13.3333 10.9376 13.3333 9.44444C13.3333 7.32735 11.841 5.61111 10 5.61111C8.15905 5.61111 6.66667 7.32735 6.66667 9.44444C6.66667 9.97372 7.03976 10.4028 7.5 10.4028C7.96024 10.4028 8.33333 9.97372 8.33333 9.44444Z" fill="black"/>
<path fill-rule="evenodd" clip-rule="evenodd" d="M0 12C0 5.64873 4.47715 0.5 10 0.5C15.5228 0.5 20 5.64873 20 12C20 18.3513 15.5228 23.5 10 23.5C4.47715 23.5 0 18.3513 0 12ZM10 2.41667C5.39763 2.41667 1.66667 6.70727 1.66667 12C1.66667 17.2927 5.39763 21.5833 10 21.5833C14.6024 21.5833 18.3333 17.2927 18.3333 12C18.3333 6.70727 14.6024 2.41667 10 2.41667Z" fill="black"/>
</svg>
