<svg width="20" height="24" viewBox="0 0 20 24" fill="none" xmlns="http://www.w3.org/2000/svg">
<path fill-rule="evenodd" clip-rule="evenodd" d="M11.5641 2.96429L3.43796 2.96429C2.5749 2.96429 1.87525 3.8837 1.87525 5.01786L1.87525 18.9821C1.87525 20.1163 2.5749 21.0357 3.43796 21.0357H11.5641C12.0819 21.0357 12.5017 21.5874 12.5017 22.2679C12.5017 22.9484 12.0819 23.5 11.5641 23.5H3.43796C1.53923 23.5 5.21611e-07 21.4773 4.47095e-07 18.9821L0 5.01786C-7.45158e-08 2.52271 1.53923 0.500001 3.43796 0.5L11.5641 0.5C12.0819 0.5 12.5017 1.05165 12.5017 1.73214C12.5017 2.41264 12.0819 2.96429 11.5641 2.96429ZM14.9614 6.61089C15.3276 6.1297 15.9212 6.1297 16.2874 6.61089L19.7254 11.1287C19.9012 11.3598 20 11.6732 20 12C20 12.3268 19.9012 12.6402 19.7254 12.8713L16.2874 17.3891C15.9212 17.8703 15.3276 17.8703 14.9614 17.3891C14.5952 16.9079 14.5952 16.1278 14.9614 15.6466L16.7987 13.2321L5.93867 13.2321C5.42083 13.2321 5.00104 12.6805 5.00104 12C5.00104 11.3195 5.42083 10.7679 5.93867 10.7679L16.7987 10.7679L14.9614 8.3534C14.5952 7.87222 14.5952 7.09207 14.9614 6.61089Z" fill="black"/>
</svg>
