<svg width="20" height="24" viewBox="0 0 20 24" fill="none" xmlns="http://www.w3.org/2000/svg">
<path fill-rule="evenodd" clip-rule="evenodd" d="M3.40136 6.58062C3.40136 3.1962 6.19168 0.5 9.57483 0.5H10.4252C13.8083 0.5 16.5986 3.1962 16.5986 6.58063V7.41437C16.5986 9.58835 15.4473 11.4784 13.7271 12.5522C17.3457 13.6404 20 16.9466 20 20.8933C20 22.3591 18.796 23.5 17.3696 23.5H2.63039C1.20403 23.5 0 22.3591 0 20.8933C0 16.9466 2.65425 13.6404 6.27289 12.5522C4.55268 11.4784 3.40136 9.58835 3.40136 7.41437V6.58062ZM9.57483 2.65625C7.32242 2.65625 5.54422 4.43944 5.54422 6.58062V7.41437C5.54422 9.55556 7.32242 11.3387 9.57483 11.3387H10.4252C12.6776 11.3387 14.4558 9.55556 14.4558 7.41437V6.58063C14.4558 4.43944 12.6776 2.65625 10.4252 2.65625H9.57483ZM8.86621 14.3287C5.12664 14.3287 2.14286 17.294 2.14286 20.8933C2.14286 21.1159 2.33477 21.3438 2.63039 21.3438H17.3696C17.6652 21.3438 17.8571 21.1159 17.8571 20.8933C17.8571 17.294 14.8734 14.3287 11.1338 14.3287H8.86621Z" fill="black"/>
</svg>
