<svg width="57" height="58" viewBox="0 0 57 58" fill="none" xmlns="http://www.w3.org/2000/svg">
<path d="M56.4961 29.001C56.4961 43.6478 46.0137 55.7566 32.3963 57.7216C31.123 57.9045 29.8203 58 28.498 58C26.9717 58 25.4728 57.874 24.0132 57.6302C10.6822 55.4072 0.5 43.4345 0.5 29.001C0.5 12.9846 13.0364 0 28.5 0C43.9636 0 56.5 12.9846 56.5 29.001H56.4961Z" fill="#383D38"/>
<path d="M32.3966 23.2871V29.6046H39.942L38.7472 38.1147H32.3966V57.7217C31.1234 57.9046 29.8207 58.0001 28.4984 58.0001C26.972 58.0001 25.4731 57.8741 24.0135 57.6303V38.1147H17.0547V29.6046H24.0135V21.8748C24.0135 17.0792 27.7666 13.1899 32.3986 13.1899V13.194C32.4123 13.194 32.4241 13.1899 32.4378 13.1899H39.944V20.5499H35.0393C33.5816 20.5499 32.3986 21.7752 32.3986 23.285L32.3966 23.2871Z" fill="white"/>
</svg>
