<svg width="57" height="58" viewBox="0 0 57 58" fill="none" xmlns="http://www.w3.org/2000/svg">
<path d="M28.5638 0H28.4362C13.0075 0 0.5 12.9542 0.5 28.934V29.066C0.5 45.0458 13.0075 58 28.4362 58H28.5638C43.9925 58 56.5 45.0458 56.5 29.066V28.934C56.5 12.9542 43.9925 0 28.5638 0Z" fill="#383D38"/>
<path d="M37.1649 11.7998H19.8369C15.0497 11.7998 11.1553 15.8334 11.1553 20.7915V37.2102C11.1553 42.1684 15.0497 46.2019 19.8369 46.2019H37.1649C41.952 46.2019 45.8465 42.1684 45.8465 37.2102V20.7915C45.8465 15.8334 41.952 11.7998 37.1649 11.7998ZM14.2179 20.7915C14.2179 17.5829 16.739 14.9718 19.8369 14.9718H37.1649C40.2628 14.9718 42.7839 17.5829 42.7839 20.7915V37.2102C42.7839 40.4188 40.2628 43.0299 37.1649 43.0299H19.8369C16.739 43.0299 14.2179 40.4188 14.2179 37.2102V20.7915Z" fill="white"/>
<path d="M28.5012 37.3629C32.9529 37.3629 36.5766 33.6117 36.5766 28.9991C36.5766 24.3864 32.9548 20.6353 28.5012 20.6353C24.0476 20.6353 20.4258 24.3864 20.4258 28.9991C20.4258 33.6117 24.0476 37.3629 28.5012 37.3629ZM28.5012 23.8093C31.2656 23.8093 33.514 26.138 33.514 29.0011C33.514 31.8642 31.2656 34.1929 28.5012 34.1929C25.7368 34.1929 23.4884 31.8642 23.4884 29.0011C23.4884 26.138 25.7368 23.8093 28.5012 23.8093Z" fill="white"/>
<path d="M37.3242 21.9865C38.523 21.9865 39.5 20.9766 39.5 19.733C39.5 18.4894 38.525 17.4795 37.3242 17.4795C36.1235 17.4795 35.1484 18.4894 35.1484 19.733C35.1484 20.9766 36.1235 21.9865 37.3242 21.9865Z" fill="white"/>
</svg>
