<svg width="57" height="58" viewBox="0 0 57 58" fill="none" xmlns="http://www.w3.org/2000/svg">
<path fill-rule="evenodd" clip-rule="evenodd" d="M16.0213 0.0621695C16.7036 0.18297 17.5961 0.54093 18.2343 1.44418L23.9012 9.46378C25.0644 11.1098 25.3109 13.2665 24.5509 15.1483L22.0279 21.3957C21.9739 21.5294 22.0067 21.6272 22.0341 21.6675C23.6336 24.0206 25.6323 26.5302 28.1482 29.1473C28.1875 29.1835 28.2261 29.2211 28.2638 29.2601C30.8258 31.9141 33.2818 34.0167 35.5829 35.6949C35.6219 35.7233 35.7162 35.7573 35.8453 35.7013L41.8758 33.0883C43.6927 32.301 45.775 32.5563 47.3642 33.7612L55.1059 39.6309C55.9779 40.2921 56.3234 41.2165 56.44 41.9232C56.5514 42.5981 56.489 43.2388 56.4041 43.728C56.2332 44.7137 55.8468 45.7529 55.4656 46.633C54.6868 48.4313 53.6279 50.2441 53.1142 51.0333L52.7176 51.6429C51.6778 53.241 50.1192 55.6363 47.5596 56.8237C43.1336 58.8769 37.4206 58.0776 31.8242 55.6989C26.2036 53.3099 20.223 49.1382 14.7946 43.5719C14.7496 43.5312 14.7056 43.4887 14.6628 43.4443C9.17192 37.7569 5.06117 31.4668 2.72153 25.5606C0.425037 19.7633 -0.346536 13.8454 1.63569 9.26072C2.78202 6.60939 5.09449 4.99495 6.63735 3.91781C6.64918 3.90955 6.66096 3.90132 6.6727 3.89313L7.22566 3.50704C7.98775 2.97493 9.73791 1.87803 11.4741 1.07137C12.3239 0.676571 13.3272 0.276351 14.2788 0.099271C14.7511 0.0113887 15.3697 -0.0532008 16.0213 0.0621695ZM18.1597 39.3749C18.198 39.4103 18.2357 39.447 18.2725 39.4851C23.3503 44.7452 28.8549 48.5589 33.8172 50.6681C38.8847 52.822 42.9229 53.0163 45.4137 51.8608C46.4223 51.3929 47.2306 50.3456 48.3881 48.5669L48.7609 47.994C49.1465 47.4014 50.0456 45.8619 50.6755 44.4074C50.8584 43.9852 50.9956 43.6218 51.0907 43.3257L44.2633 38.1492C44.1587 38.0698 44.0216 38.053 43.9019 38.1049L37.8714 40.7179C36.1628 41.4583 34.1503 41.3007 32.5604 40.1412C30.0385 38.3019 27.387 36.0308 24.6535 33.2108C24.6129 33.1736 24.5732 33.1349 24.5344 33.0947C21.7645 30.2256 19.5392 27.4431 17.7414 24.798C16.6221 23.1513 16.4699 21.0669 17.1846 19.2972L19.7076 13.0498C19.7577 12.9259 19.7414 12.7839 19.6648 12.6755L14.6671 5.60295C14.3812 5.70147 14.0304 5.84359 13.6228 6.03298C12.2185 6.6854 10.7322 7.61669 10.1601 8.01613L9.60716 8.40222C7.88995 9.6012 6.87881 10.4385 6.42709 11.4833C5.31143 14.0637 5.49906 18.2469 7.57852 23.4963C9.58593 28.5639 13.1926 34.1773 18.1597 39.3749Z" fill="black"/>
</svg>
