<svg width="57" height="58" viewBox="0 0 57 58" fill="none" xmlns="http://www.w3.org/2000/svg">
<path fill-rule="evenodd" clip-rule="evenodd" d="M0.5 11.3929C0.5 5.10076 4.33045 0 9.05556 0H47.9444C52.6695 0 56.5 5.10076 56.5 11.3929V46.6071C56.5 52.8992 52.6695 58 47.9444 58H9.05556C4.33045 58 0.5 52.8992 0.5 46.6071V11.3929ZM9.05556 6.21429C6.90778 6.21429 5.16667 8.53281 5.16667 11.3929V46.6071C5.16667 49.4672 6.90778 51.7857 9.05556 51.7857H47.9444C50.0922 51.7857 51.8333 49.4672 51.8333 46.6071V11.3929C51.8333 8.53281 50.0922 6.21429 47.9444 6.21429H9.05556ZM10.3951 13.525C11.2337 12.2221 12.7068 12.0712 13.6852 13.188L28.5 30.0976L43.3148 13.188C44.2932 12.0712 45.7663 12.2221 46.6049 13.525C47.4436 14.8279 47.3303 16.7895 46.3518 17.9063L30.0185 36.5491C29.1447 37.5465 27.8553 37.5465 26.9815 36.5491L10.6482 17.9063C9.66973 16.7895 9.55642 14.8279 10.3951 13.525Z" fill="black"/>
</svg>
