<svg width="26" height="27" viewBox="0 0 26 27" fill="none" xmlns="http://www.w3.org/2000/svg">
<path fill-rule="evenodd" clip-rule="evenodd" d="M0 7.125C0 3.18997 3.07182 0 6.86111 0H19.1389C22.9282 0 26 3.18997 26 7.125V19.875C26 23.81 22.9282 27 19.1389 27H6.86111C3.07182 27 0 23.81 0 19.875V7.125ZM6.86111 2.25C4.26844 2.25 2.16667 4.43261 2.16667 7.125V19.875C2.16667 22.5674 4.26844 24.75 6.86111 24.75H19.1389C21.7316 24.75 23.8333 22.5674 23.8333 19.875V7.125C23.8333 4.43261 21.7316 2.25 19.1389 2.25H6.86111Z" fill="white"/>
<path fill-rule="evenodd" clip-rule="evenodd" d="M8.26175 10.642C8.68481 10.2027 9.37074 10.2027 9.79381 10.642L13 13.9715L16.2062 10.642C16.6293 10.2027 17.3152 10.2027 17.7383 10.642C18.1613 11.0813 18.1613 11.7937 17.7383 12.233L13.766 16.358C13.5629 16.569 13.2873 16.6875 13 16.6875C12.7127 16.6875 12.4371 16.569 12.234 16.358L8.26175 12.233C7.83868 11.7937 7.83868 11.0813 8.26175 10.642Z" fill="white"/>
</svg>
