<svg width="57" height="59" viewBox="0 0 57 59" fill="none" xmlns="http://www.w3.org/2000/svg">
<path d="M28.5638 0H28.4362C13.0075 0 0.5 13.1775 0.5 29.4328V29.5672C0.5 45.8225 13.0075 59 28.4362 59H28.5638C43.9925 59 56.5 45.8225 56.5 29.5672V29.4328C56.5 13.1775 43.9925 0 28.5638 0Z" fill="#383D38"/>
<path d="M33.9569 38.1288C26.7899 38.1288 20.959 31.9835 20.957 24.4325C20.959 22.5184 22.4383 20.9619 24.2512 20.9619C24.4375 20.9619 24.6219 20.9784 24.7985 21.0115C25.187 21.0797 25.5559 21.2182 25.8953 21.427C25.9443 21.458 25.9777 21.5076 25.9855 21.5655L26.7428 26.5946C26.7526 26.6525 26.735 26.7125 26.6977 26.7559C26.2798 27.2437 25.7462 27.5951 25.1517 27.7708L24.8652 27.8556L24.9731 28.147C25.9502 30.768 27.9396 32.862 30.4293 33.8955L30.706 34.0112L30.7864 33.7095C30.9532 33.0831 31.2867 32.5209 31.7497 32.0806C31.7831 32.0475 31.8282 32.031 31.8733 32.031C31.8831 32.031 31.893 32.031 31.9047 32.0331L36.6782 32.831C36.735 32.8413 36.7821 32.8744 36.8116 32.926C37.0078 33.2836 37.1392 33.6743 37.2059 34.0836C37.2373 34.2655 37.2511 34.4577 37.2511 34.6582C37.2511 36.5703 35.7737 38.1268 33.9569 38.1288Z" fill="#FDFDFD"/>
<path d="M46.6668 27.8433C46.2803 23.242 44.2791 18.9735 41.032 15.8254C37.7654 12.6587 33.5276 10.9141 29.0955 10.9141C19.3681 10.9141 11.4536 19.2526 11.4536 29.501C11.4536 32.9406 12.3542 36.2913 14.0591 39.21L10.2568 48.0777L22.4308 46.7113C24.5477 47.625 26.7882 48.088 29.0935 48.088C29.6998 48.088 30.3217 48.0549 30.9456 47.9867C31.495 47.9247 32.0502 47.8338 32.5956 47.718C40.7417 45.9837 46.6883 38.3666 46.7354 29.6003V29.501C46.7354 28.9429 46.7119 28.3848 46.6648 27.8453L46.6668 27.8433ZM22.8997 42.8191L16.1643 43.5756L18.1753 38.8813L17.7731 38.3129C17.7437 38.2716 17.7142 38.2302 17.6809 38.1827C15.9347 35.6423 15.0126 32.6409 15.0126 29.5031C15.0126 21.3217 21.3301 14.6658 29.0955 14.6658C36.3704 14.6658 42.5368 20.6458 43.1313 28.2794C43.1627 28.6887 43.1804 29.1 43.1804 29.5052C43.1804 29.6209 43.1784 29.7346 43.1764 29.8566C43.0273 36.7006 38.4893 42.5132 32.1405 43.9932C31.6559 44.1069 31.1595 44.1937 30.6651 44.2495C30.151 44.3115 29.6233 44.3425 29.0994 44.3425C27.2336 44.3425 25.4208 43.9622 23.708 43.2098C23.5177 43.1291 23.3313 43.0423 23.1567 42.9534L22.9016 42.8232L22.8997 42.8191Z" fill="#FDFDFD"/>
</svg>
