<svg width="57" height="58" viewBox="0 0 57 58" fill="none" xmlns="http://www.w3.org/2000/svg">
<path d="M56.4961 29.001C56.4961 43.6478 46.0137 55.7566 32.3963 57.7216C31.123 57.9045 29.8203 58 28.498 58C26.9717 58 25.4728 57.874 24.0132 57.6302C10.6822 55.4072 0.5 43.4345 0.5 29.001C0.5 12.9846 13.0364 0 28.5 0C43.9636 0 56.5 12.9846 56.5 29.001H56.4961Z" fill="#383D38"/>
<path d="M11.8549 12.7915L24.768 30.6733L11.7744 45.2124H14.6996L26.0766 32.4838L35.268 45.2124H45.2206L31.5816 26.3248L43.6766 12.7915H40.7514L30.275 24.5142L21.8095 12.7915H11.8568H11.8549ZM16.1553 15.0227H20.7265L40.9162 42.9813H36.345L16.1553 15.0227Z" fill="white"/>
</svg>
