<svg width="14" height="18" viewBox="0 0 14 18" fill="none" xmlns="http://www.w3.org/2000/svg">
<path fill-rule="evenodd" clip-rule="evenodd" d="M3.5 1.75049C3.5 0.78399 4.2835 0.000488281 5.25 0.000488281H8.75C9.7165 0.000488281 10.5 0.78399 10.5 1.75049V2.49927H12.25C13.2165 2.49927 14 3.28278 14 4.24927V5.74927C14 6.16349 13.6642 6.49927 13.25 6.49927H13V16.2493C13 17.2158 12.2165 17.9993 11.25 17.9993H2.75C1.7835 17.9993 1 17.2158 1 16.2493V6.49927H0.75C0.335786 6.49927 0 6.16349 0 5.74927V4.24927C0 3.28278 0.783502 2.49927 1.75 2.49927H3.5V1.75049ZM9 2.49927H5V1.75049C5 1.61242 5.11193 1.50049 5.25 1.50049H8.75C8.88807 1.50049 9 1.61242 9 1.75049V2.49927ZM4.20696 3.99927H1.75C1.61193 3.99927 1.5 4.1112 1.5 4.24927V4.99927H1.74915C1.74886 4.99927 1.74943 4.99927 1.74915 4.99927L12.25 4.99927C12.2497 4.99927 12.2503 4.99927 12.25 4.99927L12.5 4.99927V4.24927C12.5 4.1112 12.3881 3.99927 12.25 3.99927H9.79304C9.77879 4.00008 9.76444 4.00049 9.75 4.00049H4.25C4.23556 4.00049 4.22121 4.00008 4.20696 3.99927ZM2.5 6.49927V16.2493C2.5 16.3873 2.61193 16.4993 2.75 16.4993H11.25C11.3881 16.4993 11.5 16.3873 11.5 16.2493V6.49927H2.5ZM4.5 7.99928C4.91421 7.99928 5.25 8.33506 5.25 8.74928V14.2493C5.25 14.6635 4.91421 14.9993 4.5 14.9993C4.08579 14.9993 3.75 14.6635 3.75 14.2493V8.74928C3.75 8.33506 4.08579 7.99928 4.5 7.99928ZM7 7.99928C7.41421 7.99928 7.75 8.33506 7.75 8.74928V14.2493C7.75 14.6635 7.41421 14.9993 7 14.9993C6.58579 14.9993 6.25 14.6635 6.25 14.2493V8.74928C6.25 8.33506 6.58579 7.99928 7 7.99928ZM9.5 7.99928C9.91421 7.99928 10.25 8.33506 10.25 8.74928V14.2493C10.25 14.6635 9.91421 14.9993 9.5 14.9993C9.08579 14.9993 8.75 14.6635 8.75 14.2493V8.74928C8.75 8.33506 9.08579 7.99928 9.5 7.99928Z" fill="black"/>
</svg>
