<svg width="16" height="16" viewBox="0 0 16 16" fill="none" xmlns="http://www.w3.org/2000/svg">
<path fill-rule="evenodd" clip-rule="evenodd" d="M11.0492 0.849432C12.1817 -0.283144 14.018 -0.283144 15.1506 0.849433C16.2832 1.98201 16.2832 3.81828 15.1506 4.95086L5.41842 14.683C5.32486 14.7766 5.20822 14.8437 5.08033 14.8776L0.942254 15.9749C0.683414 16.0436 0.407616 15.969 0.218639 15.7793C0.029661 15.5896 -0.0438227 15.3135 0.0258385 15.0549L1.14716 10.8928C1.18132 10.766 1.24817 10.6504 1.34101 10.5576L11.0492 0.849432ZM14.0899 1.91009C13.5431 1.3633 12.6566 1.3633 12.1098 1.91009L11.2926 2.72727L13.2727 4.70738L14.0899 3.8902C14.6367 3.34341 14.6367 2.45688 14.0899 1.91009ZM12.2121 5.76804L10.232 3.78793L2.54339 11.4765L1.81165 14.1926L4.5006 13.4795L12.2121 5.76804Z" fill="black"/>
</svg>
