<svg width="18" height="18" viewBox="0 0 18 18" fill="none" xmlns="http://www.w3.org/2000/svg">
<path fill-rule="evenodd" clip-rule="evenodd" d="M0 4.75C0 2.12665 2.12665 0 4.75 0H13.25C15.8734 0 18 2.12665 18 4.75V13.25C18 15.8734 15.8734 18 13.25 18H4.75C2.12665 18 0 15.8734 0 13.25V4.75ZM4.75 1.5C2.95507 1.5 1.5 2.95507 1.5 4.75V13.25C1.5 15.0449 2.95507 16.5 4.75 16.5H13.25C15.0449 16.5 16.5 15.0449 16.5 13.25V4.75C16.5 2.95507 15.0449 1.5 13.25 1.5H4.75ZM12.6767 5.13321C13.0173 5.36886 13.1024 5.83604 12.8668 6.17669L8.37017 12.6767C8.23285 12.8752 8.00838 12.9955 7.76705 12.9999C7.52571 13.0043 7.29701 12.8923 7.15254 12.6989L5.14917 10.0174C4.90125 9.68552 4.96928 9.21554 5.30112 8.96763C5.63295 8.71972 6.10292 8.78775 6.35083 9.11958L7.72997 10.9656L11.6332 5.32331C11.8689 4.98266 12.336 4.89755 12.6767 5.13321Z" fill="black"/>
</svg>
