<svg width="14" height="16" viewBox="0 0 14 16" fill="none" xmlns="http://www.w3.org/2000/svg">
<path fill-rule="evenodd" clip-rule="evenodd" d="M7 0.000976562C7.19891 0.000976562 7.38968 0.0799942 7.53033 0.220647L10.2803 2.97065C10.5732 3.26354 10.5732 3.73841 10.2803 4.03131C9.98744 4.3242 9.51256 4.3242 9.21967 4.03131L7.75 2.56164L7.75 11.2485C7.75 11.6627 7.41421 11.9985 7 11.9985C6.58579 11.9985 6.25 11.6627 6.25 11.2485L6.25 2.56164L4.78033 4.03131C4.48744 4.3242 4.01256 4.3242 3.71967 4.03131C3.42678 3.73841 3.42678 3.26354 3.71967 2.97065L6.46967 0.220647C6.61032 0.0799942 6.80109 0.000976562 7 0.000976562ZM10 5.74882C10 5.33461 10.3358 4.99882 10.75 4.99882H11.25C12.7688 4.99882 14 6.23004 14 7.74882L14 13.2488C14 14.7676 12.7688 15.9988 11.25 15.9988L2.75 15.9988C1.23122 15.9988 5.96048e-07 14.7676 4.76839e-07 13.2488L0 7.74882C-1.19207e-07 6.23004 1.23122 4.99882 2.75 4.99882L3.25 4.99882C3.66421 4.99882 4 5.33461 4 5.74882C4 6.16303 3.66421 6.49882 3.25 6.49882L2.75 6.49882C2.05964 6.49882 1.5 7.05847 1.5 7.74882L1.5 13.2488C1.5 13.9392 2.05964 14.4988 2.75 14.4988L11.25 14.4988C11.9404 14.4988 12.5 13.9392 12.5 13.2488L12.5 7.74882C12.5 7.05847 11.9404 6.49882 11.25 6.49882H10.75C10.3358 6.49882 10 6.16304 10 5.74882Z" fill="black"/>
</svg>
