<svg width="55" height="60" viewBox="0 0 55 60" fill="none" xmlns="http://www.w3.org/2000/svg">
<path d="M17.375 13.6136C17.375 15.4253 15.864 16.8939 14 16.8939C12.136 16.8939 10.625 15.4253 10.625 13.6136C10.625 11.802 12.136 10.3333 14 10.3333C15.864 10.3333 17.375 11.802 17.375 13.6136Z" fill="black"/>
<path d="M17.375 23.4419C17.375 25.2536 15.864 26.7222 14 26.7222C12.136 26.7222 10.625 25.2536 10.625 23.4419C10.625 21.6303 12.136 20.1617 14 20.1617C15.864 20.1617 17.375 21.6303 17.375 23.4419Z" fill="black"/>
<path d="M17.375 33.2705C17.375 35.0821 15.864 36.5508 14 36.5508C12.136 36.5508 10.625 35.0821 10.625 33.2705C10.625 31.4588 12.136 29.9902 14 29.9902C15.864 29.9902 17.375 31.4588 17.375 33.2705Z" fill="black"/>
<path d="M27.4999 13.6136C27.4999 15.4253 25.9889 16.8939 24.1249 16.8939C22.2609 16.8939 20.7499 15.4253 20.7499 13.6136C20.7499 11.802 22.2609 10.3333 24.1249 10.3333C25.9889 10.3333 27.4999 11.802 27.4999 13.6136Z" fill="black"/>
<path d="M27.4999 23.4419C27.4999 25.2536 25.9889 26.7222 24.1249 26.7222C22.2609 26.7222 20.7499 25.2536 20.7499 23.4419C20.7499 21.6303 22.2609 20.1617 24.1249 20.1617C25.9889 20.1617 27.4999 21.6303 27.4999 23.4419Z" fill="black"/>
<path d="M27.4999 33.2705C27.4999 35.0821 25.9889 36.5508 24.1249 36.5508C22.2609 36.5508 20.7499 35.0821 20.7499 33.2705C20.7499 31.4588 22.2609 29.9902 24.1249 29.9902C25.9889 29.9902 27.4999 31.4588 27.4999 33.2705Z" fill="black"/>
<path d="M37.6249 13.6136C37.6249 15.4253 36.1139 16.8939 34.2499 16.8939C32.3859 16.8939 30.8749 15.4253 30.8749 13.6136C30.8749 11.802 32.3859 10.3333 34.2499 10.3333C36.1139 10.3333 37.6249 11.802 37.6249 13.6136Z" fill="black"/>
<path d="M37.6249 23.4419C37.6249 25.2536 36.1139 26.7222 34.2499 26.7222C32.3859 26.7222 30.8749 25.2536 30.8749 23.4419C30.8749 21.6303 32.3859 20.1617 34.2499 20.1617C36.1139 20.1617 37.6249 21.6303 37.6249 23.4419Z" fill="black"/>
<path d="M37.6249 33.2705C37.6249 35.0821 36.1139 36.5508 34.2499 36.5508C32.3859 36.5508 30.8749 35.0821 30.8749 33.2705C30.8749 31.4588 32.3859 29.9902 34.2499 29.9902C36.1139 29.9902 37.6249 31.4588 37.6249 33.2705Z" fill="black"/>
<path fill-rule="evenodd" clip-rule="evenodd" d="M6.40625 0.5C3.14432 0.5 0.5 3.06814 0.5 6.23611V53.7639C0.5 56.9319 3.14432 59.5 6.40625 59.5H18.2188C19.6167 59.5 20.75 58.3994 20.75 57.0417V48.0278C20.75 46.2175 22.261 44.75 24.125 44.75C25.989 44.75 27.5 46.2175 27.5 48.0278V57.0417C27.5 58.3994 28.6333 59.5 30.0313 59.5H48.5937C51.8557 59.5 54.5 56.9319 54.5 53.7639V33.816C54.5 32.2947 53.8777 30.8357 52.7701 29.76L47.75 24.8845L47.75 6.23611C47.75 3.06814 45.1057 0.5 41.8438 0.5H6.40625ZM47.75 54.5833L47.75 31.8377L49.1904 33.2366C49.3486 33.3903 49.4375 33.5987 49.4375 33.816V53.7639C49.4375 54.2164 49.0597 54.5833 48.5937 54.5833H47.75ZM42.6875 54.5833H32.5625V48.0278C32.5625 43.5021 28.7849 39.8333 24.125 39.8333C19.4651 39.8333 15.6875 43.5021 15.6875 48.0278V54.5833H6.40625C5.94026 54.5833 5.5625 54.2165 5.5625 53.7639V6.23611C5.5625 5.78354 5.94026 5.41667 6.40625 5.41667H41.8438C42.3097 5.41667 42.6875 5.78355 42.6875 6.23611L42.6875 54.5833Z" fill="black"/>
</svg>
