<svg width="204" height="186" viewBox="0 0 204 186" fill="none" xmlns="http://www.w3.org/2000/svg">
<rect x="0.5" y="0.5" width="203" height="185" rx="24.5" stroke="black" stroke-opacity="0.5"/>
<path fill-rule="evenodd" clip-rule="evenodd" d="M87.7777 95.875C87.7777 89.5237 94.1452 84.375 102 84.375C109.855 84.375 116.222 89.5237 116.222 95.875C116.222 102.226 109.855 107.375 102 107.375C94.1452 107.375 87.7777 102.226 87.7777 95.875ZM102 88.6875C97.0907 88.6875 93.111 91.9054 93.111 95.875C93.111 99.8445 97.0907 103.062 102 103.062C106.909 103.062 110.889 99.8445 110.889 95.875C110.889 91.9054 106.909 88.6875 102 88.6875Z" fill="black"/>
<path d="M117.111 87.25C118.584 87.25 119.778 86.2846 119.778 85.0938C119.778 83.9029 118.584 82.9375 117.111 82.9375C115.638 82.9375 114.444 83.9029 114.444 85.0938C114.444 86.2846 115.638 87.25 117.111 87.25Z" fill="black"/>
<path fill-rule="evenodd" clip-rule="evenodd" d="M91.6129 71.6884C92.7937 70.6145 94.486 70 96.2632 70H107.737C109.514 70 111.206 70.6145 112.387 71.6884L117.599 76.4288C117.768 76.5822 118.009 76.67 118.263 76.67H124.222C129.622 76.67 134 80.2097 134 84.5763V108.094C134 112.46 129.622 116 124.222 116H79.7778C74.3777 116 70 112.46 70 108.094V84.5763C70 80.2098 74.3777 76.67 79.7778 76.67H85.7368C85.9907 76.67 86.2324 76.5822 86.4011 76.4288L91.6129 71.6884ZM96.2632 74.3125C96.0093 74.3125 95.7676 74.4003 95.5989 74.5537L90.3871 79.2941C89.2063 80.368 87.514 80.9825 85.7368 80.9825H79.7778C77.3232 80.9825 75.3333 82.5915 75.3333 84.5763V108.094C75.3333 110.079 77.3232 111.687 79.7778 111.687H124.222C126.677 111.687 128.667 110.079 128.667 108.094V84.5763C128.667 82.5915 126.677 80.9825 124.222 80.9825H118.263C116.486 80.9825 114.794 80.368 113.613 79.2941L108.401 74.5537C108.232 74.4003 107.991 74.3125 107.737 74.3125H96.2632Z" fill="black"/>
</svg>
