<svg width="29" height="33" viewBox="0 0 29 33" fill="none" xmlns="http://www.w3.org/2000/svg">
<path fill-rule="evenodd" clip-rule="evenodd" d="M6.56313 1.83333C7.14492 0.749399 8.39322 0 9.83928 0H19.1607C20.6068 0 21.8551 0.749399 22.4369 1.83333H23.3036C26.4496 1.83333 29 4.09056 29 6.875V27.9583C29 30.7428 26.4496 33 23.3036 33H5.69643C2.55038 33 0 30.7428 0 27.9583V6.875C0 4.09056 2.55038 1.83333 5.69643 1.83333H6.56313ZM6.21429 4.58333H5.69643C4.26641 4.58333 3.10714 5.60935 3.10714 6.875V27.9583C3.10714 29.224 4.26641 30.25 5.69643 30.25H23.3036C24.7336 30.25 25.8929 29.224 25.8929 27.9583V6.875C25.8929 5.60935 24.7336 4.58333 23.3036 4.58333H22.7857V5.95833C22.7857 6.71773 22.0902 7.33333 21.2321 7.33333H7.76786C6.90984 7.33333 6.21429 6.71773 6.21429 5.95833V4.58333ZM19.6786 4.58333V3.20833C19.6786 2.9552 19.4467 2.75 19.1607 2.75H9.83928C9.55328 2.75 9.32143 2.9552 9.32143 3.20833V4.58333H19.6786ZM6.21429 13.2917C6.21429 12.5323 6.90984 11.9167 7.76786 11.9167H21.2321C22.0902 11.9167 22.7857 12.5323 22.7857 13.2917C22.7857 14.0511 22.0902 14.6667 21.2321 14.6667H7.76786C6.90984 14.6667 6.21429 14.0511 6.21429 13.2917ZM6.21429 18.7917C6.21429 18.0323 6.90984 17.4167 7.76786 17.4167H21.2321C22.0902 17.4167 22.7857 18.0323 22.7857 18.7917C22.7857 19.5511 22.0902 20.1667 21.2321 20.1667H7.76786C6.90984 20.1667 6.21429 19.5511 6.21429 18.7917ZM6.21429 24.2917C6.21429 23.5323 6.90984 22.9167 7.76786 22.9167H14.896C15.754 22.9167 16.4496 23.5323 16.4496 24.2917C16.4496 25.0511 15.754 25.6667 14.896 25.6667H7.76786C6.90984 25.6667 6.21429 25.0511 6.21429 24.2917Z" fill="black"/>
</svg>
