<svg width="86" height="93" viewBox="0 0 86 93" fill="none" xmlns="http://www.w3.org/2000/svg">
<path fill-rule="evenodd" clip-rule="evenodd" d="M14.9558 24.5869C14.9558 10.902 26.8146 0 41.193 0H44.807C59.1854 0 71.0442 10.902 71.0442 24.5869V27.9581C71.0442 36.7486 66.1511 44.3908 58.8402 48.7328C74.2194 53.1328 85.5 66.5014 85.5 82.46C85.5 88.387 80.3829 93 74.3209 93H11.6791C5.61711 93 0.5 88.3869 0.5 82.46C0.5 66.5014 11.7806 53.1328 27.1598 48.7328C19.8489 44.3908 14.9558 36.7486 14.9558 27.9581V24.5869ZM41.193 8.71875C31.6203 8.71875 24.0629 15.929 24.0629 24.5869V27.9581C24.0629 36.616 31.6203 43.8262 41.193 43.8262H44.807C54.3797 43.8262 61.9371 36.616 61.9371 27.9581V24.5869C61.9371 15.929 54.3797 8.71875 44.807 8.71875H41.193ZM38.1814 55.9162C22.2882 55.9162 9.60714 67.9062 9.60714 82.46C9.60714 83.36 10.4228 84.2812 11.6791 84.2812H74.3209C75.5772 84.2812 76.3929 83.36 76.3929 82.46C76.3929 67.9062 63.7118 55.9162 47.8186 55.9162H38.1814Z" fill="black"/>
</svg>
