<svg width="29" height="33" viewBox="0 0 29 33" fill="none" xmlns="http://www.w3.org/2000/svg">
<path fill-rule="evenodd" clip-rule="evenodd" d="M14.5 2.75C13.9995 2.75 13.5937 3.16041 13.5937 3.66667C13.5937 4.34645 13.106 4.91102 12.4652 5.02192C10.672 5.60549 8.84696 6.88102 7.46184 8.51394C6.03795 10.1925 5.19678 12.1053 5.19678 13.8417V21.7576C5.19678 22.0215 5.12174 22.2797 4.98061 22.5016L3.8504 24.2785H25.1496L24.0194 22.5016C23.8783 22.2797 23.8032 22.0215 23.8032 21.7576V13.8417C23.8032 12.1053 22.962 10.1925 21.5382 8.51394C20.153 6.88102 18.328 5.60548 16.5347 5.02192C15.894 4.91102 15.4062 4.34645 15.4062 3.66667C15.4062 3.16041 15.0005 2.75 14.5 2.75ZM17.9756 2.6216C20.0885 3.44537 22.0822 4.93215 23.6015 6.72323C25.2991 8.72452 26.522 11.2488 26.522 13.8417V21.3535L28.7838 24.9095C29.0529 25.3326 29.0721 25.8705 28.8339 26.3121C28.5956 26.7537 28.138 27.0285 27.6406 27.0285H19.8555C19.9085 27.1755 19.9375 27.3343 19.9375 27.5C19.9375 30.5376 17.503 33 14.5 33C11.497 33 9.0625 30.5376 9.0625 27.5C9.0625 27.3343 9.09146 27.1755 9.14454 27.0285H1.35938C0.862017 27.0285 0.404363 26.7537 0.166115 26.3121C-0.0721326 25.8705 -0.0529339 25.3326 0.216172 24.9095L2.47803 21.3535V13.8417C2.47803 11.2488 3.70088 8.72452 5.39848 6.72323C6.91777 4.93215 8.91146 3.44537 11.0244 2.6216C11.4692 1.1057 12.8569 0 14.5 0C16.1431 0 17.5308 1.1057 17.9756 2.6216ZM11.6992 27.0285C11.7523 27.1755 11.7812 27.3343 11.7812 27.5C11.7812 29.0188 12.9985 30.25 14.5 30.25C16.0015 30.25 17.2188 29.0188 17.2188 27.5C17.2188 27.3343 17.2477 27.1755 17.3008 27.0285H11.6992Z" fill="black"/>
</svg>
