<svg width="89" height="86" viewBox="0 0 89 86" fill="none" xmlns="http://www.w3.org/2000/svg">
<path d="M88 43C88 66.1797 68.5409 85 44.5 85C20.4591 85 1 66.1797 1 43C1 19.8202 20.4591 1 44.5 1C68.5409 1 88 19.8202 88 43Z" fill="white" stroke="black"/>
<path fill-rule="evenodd" clip-rule="evenodd" d="M32.7925 33.3394C32.7925 27.3063 37.9546 22.5 44.2134 22.5H45.7866C52.0454 22.5 57.2075 27.3063 57.2075 33.3394V34.8256C57.2075 38.701 55.0775 42.0701 51.8952 43.9844C58.5896 45.9241 63.5 51.8178 63.5 58.8533C63.5 61.4663 61.2725 63.5 58.6338 63.5H31.3662C28.7274 63.5 26.5 61.4663 26.5 58.8533C26.5 51.8178 31.4104 45.9241 38.1048 43.9844C34.9225 42.0701 32.7925 38.701 32.7925 34.8256V33.3394ZM44.2134 26.3438C40.0465 26.3438 36.7568 29.5225 36.7568 33.3394V34.8256C36.7568 38.6425 40.0465 41.8212 44.2134 41.8212H45.7866C49.9535 41.8212 53.2432 38.6425 53.2432 34.8256V33.3394C53.2432 29.5225 49.9535 26.3438 45.7866 26.3438H44.2134ZM42.9025 47.1512C35.9843 47.1512 30.4643 52.4371 30.4643 58.8533C30.4643 59.2501 30.8193 59.6562 31.3662 59.6562H58.6338C59.1807 59.6562 59.5357 59.2501 59.5357 58.8533C59.5357 52.4371 54.0157 47.1512 47.0975 47.1512H42.9025Z" fill="black"/>
</svg>
