<svg width="37" height="33" viewBox="0 0 37 33" fill="none" xmlns="http://www.w3.org/2000/svg">
<path fill-rule="evenodd" clip-rule="evenodd" d="M7.26786 0C3.25393 0 0 2.53938 0 5.67188V27.3281C0 30.4606 3.25393 33 7.26786 33H29.7321C33.7461 33 37 30.4606 37 27.3281V5.67188C37 2.53939 33.7461 0 29.7321 0H7.26786ZM3.96429 5.67188C3.96429 4.24802 5.44335 3.09375 7.26786 3.09375H29.7321C31.5567 3.09375 33.0357 4.24802 33.0357 5.67188V27.3281C33.0357 28.752 31.5567 29.9062 29.7321 29.9062H7.26786C5.44335 29.9062 3.96429 28.752 3.96429 27.3281V5.67188ZM11.8929 9.28125C11.8929 10.1356 11.0054 10.8281 9.91071 10.8281C8.81601 10.8281 7.92857 10.1356 7.92857 9.28125C7.92857 8.42693 8.81601 7.73438 9.91071 7.73438C11.0054 7.73438 11.8929 8.42693 11.8929 9.28125ZM13.875 9.28125C13.875 8.42693 14.7624 7.73438 15.8571 7.73438H27.0893C28.184 7.73438 29.0714 8.42693 29.0714 9.28125C29.0714 10.1356 28.184 10.8281 27.0893 10.8281H15.8571C14.7624 10.8281 13.875 10.1356 13.875 9.28125ZM9.91071 25.2656C11.0054 25.2656 11.8929 24.5731 11.8929 23.7188C11.8929 22.8644 11.0054 22.1719 9.91071 22.1719C8.81601 22.1719 7.92857 22.8644 7.92857 23.7188C7.92857 24.5731 8.81601 25.2656 9.91071 25.2656ZM15.8571 22.1719C14.7624 22.1719 13.875 22.8644 13.875 23.7188C13.875 24.5731 14.7624 25.2656 15.8571 25.2656H27.0893C28.184 25.2656 29.0714 24.5731 29.0714 23.7188C29.0714 22.8644 28.184 22.1719 27.0893 22.1719H15.8571ZM11.8929 16.5C11.8929 17.3543 11.0054 18.0469 9.91071 18.0469C8.81601 18.0469 7.92857 17.3543 7.92857 16.5C7.92857 15.6457 8.81601 14.9531 9.91071 14.9531C11.0054 14.9531 11.8929 15.6457 11.8929 16.5ZM13.875 16.5C13.875 15.6457 14.7624 14.9531 15.8571 14.9531H27.0893C28.184 14.9531 29.0714 15.6457 29.0714 16.5C29.0714 17.3543 28.184 18.0469 27.0893 18.0469H15.8571C14.7624 18.0469 13.875 17.3543 13.875 16.5Z" fill="white"/>
</svg>
