<svg width="37" height="33" viewBox="0 0 37 33" fill="none" xmlns="http://www.w3.org/2000/svg">
<path fill-rule="evenodd" clip-rule="evenodd" d="M0 6.48214C0 2.90216 2.53083 0 5.65278 0H31.3472C34.4692 0 37 2.90215 37 6.48214V26.5179C37 30.0978 34.4692 33 31.3472 33H5.65278C2.53084 33 0 30.0978 0 26.5179V6.48214ZM5.65278 3.53571C4.23371 3.53571 3.08333 4.85488 3.08333 6.48214V26.5179C3.08333 28.1451 4.23371 29.4643 5.65278 29.4643H31.3472C32.7663 29.4643 33.9167 28.1451 33.9167 26.5179V6.48214C33.9167 4.85488 32.7663 3.53571 31.3472 3.53571H5.65278ZM6.53781 7.69528C7.09192 6.95397 8.06518 6.86812 8.71164 7.50353L18.5 17.1245L28.2884 7.50353C28.9348 6.86812 29.9081 6.95397 30.4622 7.69528C31.0163 8.43659 30.9414 9.55264 30.295 10.188L19.5033 20.7952C18.926 21.3626 18.074 21.3626 17.4967 20.7952L6.70503 10.188C6.05857 9.55264 5.9837 8.43659 6.53781 7.69528Z" fill="white"/>
</svg>
