<svg width="29" height="33" viewBox="0 0 29 33" fill="none" xmlns="http://www.w3.org/2000/svg">
<path fill-rule="evenodd" clip-rule="evenodd" d="M14.5 10.0833C11.3857 10.0833 8.86111 12.9562 8.86111 16.5C8.86111 20.0438 11.3857 22.9167 14.5 22.9167C17.6143 22.9167 20.1389 20.0438 20.1389 16.5C20.1389 12.9562 17.6143 10.0833 14.5 10.0833ZM11.2778 16.5C11.2778 14.475 12.7204 12.8333 14.5 12.8333C16.2796 12.8333 17.7222 14.475 17.7222 16.5C17.7222 18.525 16.2796 20.1667 14.5 20.1667C12.7204 20.1667 11.2778 18.525 11.2778 16.5Z" fill="white"/>
<path fill-rule="evenodd" clip-rule="evenodd" d="M13.847 0C12.654 0 11.5901 0.854415 11.1904 2.13351L10.3296 4.88849C10.323 4.90974 10.3087 4.9268 10.2904 4.93543C10.2721 4.94406 10.2515 4.94346 10.2336 4.93377L7.91293 3.67835C6.83549 3.09548 5.5523 3.34734 4.70873 4.30727L3.78518 5.3582C2.94161 6.31813 2.72027 7.77832 3.23249 9.00436L4.33574 11.6451C4.34425 11.6654 4.34478 11.689 4.3372 11.7098C4.32961 11.7306 4.31462 11.7468 4.29595 11.7544L1.8749 12.7339C0.750848 13.1887 0 14.3993 0 15.7569V17.2431C0 18.6007 0.75085 19.8113 1.8749 20.2661L4.29595 21.2456C4.31462 21.2532 4.32961 21.2694 4.33719 21.2902C4.34478 21.311 4.34425 21.3346 4.33574 21.3549L3.23249 23.9956C2.72027 25.2217 2.94161 26.6819 3.78518 27.6418L4.70872 28.6927C5.55229 29.6527 6.83549 29.9045 7.91292 29.3216L10.2335 28.0662C10.2514 28.0565 10.2721 28.0559 10.2904 28.0646C10.3087 28.0732 10.323 28.0903 10.3296 28.1115L11.1904 30.8665C11.5901 32.1456 12.654 33 13.847 33H15.153C16.346 33 17.4099 32.1456 17.8096 30.8665L18.6704 28.1115C18.677 28.0903 18.6913 28.0732 18.7096 28.0646C18.7279 28.0559 18.7485 28.0565 18.7664 28.0662L21.0871 29.3216C22.1645 29.9045 23.4477 29.6527 24.2913 28.6927L25.2148 27.6418C26.0584 26.6819 26.2797 25.2217 25.7675 23.9956L24.6643 21.3549C24.6557 21.3346 24.6552 21.311 24.6628 21.2902C24.6704 21.2694 24.6854 21.2532 24.7041 21.2456L27.1251 20.2661C28.2492 19.8113 29 18.6007 29 17.2431V15.7569C29 14.3993 28.2492 13.1887 27.1251 12.7339L24.7041 11.7544C24.6854 11.7468 24.6704 11.7306 24.6628 11.7098C24.6552 11.689 24.6558 11.6655 24.6643 11.6451L25.7675 9.00437C26.2797 7.77832 26.0584 6.31813 25.2148 5.35821L24.2913 4.30728C23.4477 3.34735 22.1645 3.09549 21.0871 3.67836L18.7665 4.93378C18.7486 4.94346 18.7279 4.94406 18.7096 4.93543C18.6913 4.9268 18.677 4.90974 18.6704 4.88849L17.8096 2.13351C17.4099 0.854414 16.346 0 15.153 0H13.847ZM13.4675 3.05479C13.5245 2.87206 13.6765 2.75 13.847 2.75H15.153C15.3235 2.75 15.4755 2.87206 15.5325 3.05479L16.3934 5.80977C16.6291 6.5642 17.1347 7.16968 17.7848 7.4761C18.4348 7.78252 19.1686 7.76119 19.8041 7.4174L22.1247 6.16198C22.2786 6.07871 22.4619 6.11469 22.5824 6.25182L23.506 7.30275C23.6265 7.43988 23.6581 7.64848 23.5849 7.82363L22.4817 10.4643C22.1796 11.1875 22.1608 12.0224 22.4301 12.7622C22.6994 13.5019 23.2315 14.0772 23.8944 14.3455L26.3155 15.325C26.4761 15.39 26.5833 15.5629 26.5833 15.7569V17.2431C26.5833 17.4371 26.4761 17.61 26.3155 17.675L23.8944 18.6545C23.2315 18.9228 22.6994 19.4981 22.4301 20.2378C22.1608 20.9776 22.1796 21.8125 22.4817 22.5357L23.5849 25.1764C23.6581 25.3515 23.6265 25.5601 23.506 25.6973L22.5824 26.7482C22.4619 26.8853 22.2786 26.9213 22.1247 26.838L19.8041 25.5826C19.1686 25.2388 18.4348 25.2175 17.7848 25.5239C17.1347 25.8303 16.6291 26.4358 16.3934 27.1902L15.5325 29.9452C15.4755 30.1279 15.3235 30.25 15.153 30.25H13.847C13.6765 30.25 13.5245 30.1279 13.4675 29.9452L12.6066 27.1902C12.3709 26.4358 11.8653 25.8303 11.2152 25.5239C10.5652 25.2175 9.83142 25.2388 9.19593 25.5826L6.87531 26.838C6.72139 26.9213 6.53807 26.8853 6.41756 26.7482L5.49402 25.6973C5.37351 25.5601 5.34189 25.3515 5.41506 25.1764L6.51831 22.5357C6.82043 21.8125 6.83918 20.9776 6.5699 20.2378C6.30063 19.4981 5.76855 18.9228 5.10556 18.6545L2.68451 17.675C2.52393 17.61 2.41667 17.4371 2.41667 17.2431V15.7569C2.41667 15.5629 2.52393 15.39 2.68451 15.325L5.10556 14.3455C5.76854 14.0772 6.30063 13.5019 6.5699 12.7622C6.83918 12.0224 6.82043 11.1875 6.51832 10.4643L5.41507 7.82363C5.34189 7.64848 5.37351 7.43988 5.49402 7.30274L6.41757 6.25182C6.53808 6.11468 6.72139 6.0787 6.87531 6.16197L9.19594 7.41739C9.83143 7.76118 10.5652 7.78251 11.2152 7.4761C11.8653 7.16968 12.3709 6.56421 12.6066 5.80977L13.4675 3.05479Z" fill="white"/>
</svg>
