<svg width="22" height="22" viewBox="0 0 22 22" fill="none" xmlns="http://www.w3.org/2000/svg">
<path fill-rule="evenodd" clip-rule="evenodd" d="M0 4.32143C0 1.93477 1.50482 0 3.36111 0H18.6389C20.4952 0 22 1.93477 22 4.32143V17.6786C22 20.0652 20.4952 22 18.6389 22H3.36111C1.50482 22 0 20.0652 0 17.6786V4.32143ZM3.36111 2.35714C2.51734 2.35714 1.83333 3.23658 1.83333 4.32143V17.6786C1.83333 18.7634 2.51734 19.6429 3.36111 19.6429H18.6389C19.4827 19.6429 20.1667 18.7634 20.1667 17.6786V4.32143C20.1667 3.23658 19.4827 2.35714 18.6389 2.35714H3.36111ZM3.88735 5.13019C4.21682 4.63598 4.79551 4.57875 5.17989 5.00235L11 11.4163L16.8201 5.00235C17.2045 4.57875 17.7832 4.63598 18.1127 5.13019C18.4421 5.62439 18.3976 6.36842 18.0132 6.79203L11.5966 13.8635C11.2533 14.2418 10.7467 14.2418 10.4034 13.8635L3.98677 6.79203C3.60239 6.36842 3.55788 5.62439 3.88735 5.13019Z" fill="black" fill-opacity="0.5"/>
</svg>
