<svg width="403" height="366" viewBox="0 0 403 366" fill="none" xmlns="http://www.w3.org/2000/svg">
<path d="M201.5 101.8C209.843 101.8 216.606 108.617 216.606 117.025V208.375C216.606 216.784 209.843 223.6 201.5 223.6C193.157 223.6 186.394 216.784 186.394 208.375V117.025C186.394 108.617 193.157 101.8 201.5 101.8Z" fill="#FF0209"/>
<path d="M221.642 264.2C221.642 275.411 212.624 284.5 201.5 284.5C190.376 284.5 181.358 275.411 181.358 264.2C181.358 252.989 190.376 243.9 201.5 243.9C212.624 243.9 221.642 252.989 221.642 264.2Z" fill="#FF0209"/>
<path fill-rule="evenodd" clip-rule="evenodd" d="M256.044 31.664C232.073 -10.1545 170.927 -10.1547 146.956 31.664L8.24877 273.637C-15.7278 315.464 15.6344 365.7 62.7932 365.7H340.207C387.366 365.7 418.728 315.464 394.751 273.637L256.044 31.664ZM173.116 46.8966C185.457 25.3679 217.543 25.3679 229.884 46.8967L368.591 288.87C380.141 309.02 365.7 335.25 340.207 335.25H62.7932C37.3001 335.25 22.8587 309.02 34.4093 288.87L173.116 46.8966Z" fill="#FF0209"/>
</svg>
