<svg width="49" height="47" viewBox="0 0 49 47" fill="none" xmlns="http://www.w3.org/2000/svg">
<path d="M49 23.5008C49 35.3698 39.8276 45.1821 27.912 46.7744C26.7978 46.9226 25.6579 47 24.5009 47C23.1653 47 21.8537 46.8979 20.5765 46.7003C8.90972 44.8989 0 35.1969 0 23.5008C0 10.522 10.9698 0 24.4991 0C38.0285 0 49 10.522 49 23.5008Z" fill="#1877F2"/>
<path d="M27.911 18.8688V23.9882H34.5134L33.468 30.8843H27.911V46.7727C26.7968 46.9209 25.6569 46.9983 24.4999 46.9983C23.1643 46.9983 21.8527 46.8962 20.5755 46.6986V30.8843H14.4863V23.9882H20.5755V17.7244C20.5755 13.8383 23.8596 10.6866 27.9127 10.6866V10.6899C27.9247 10.6899 27.935 10.6866 27.947 10.6866H34.5152V16.6508H30.2234C28.9479 16.6508 27.9127 17.6437 27.9127 18.8671L27.911 18.8688Z" fill="white"/>
</svg>
