<svg width="52" height="46" viewBox="0 0 52 46" fill="none" xmlns="http://www.w3.org/2000/svg">
<path fill-rule="evenodd" clip-rule="evenodd" d="M26 42.1667C14.0338 42.1667 4.33333 33.5855 4.33333 23C4.33333 12.4145 14.0338 3.83333 26 3.83333C37.9662 3.83333 47.6667 12.4145 47.6667 23C47.6667 33.5855 37.9662 42.1667 26 42.1667ZM0 23C0 35.7025 11.6406 46 26 46C40.3594 46 52 35.7025 52 23C52 10.2975 40.3594 0 26 0C11.6406 0 0 10.2975 0 23ZM16.5235 27.8692C17.3696 28.6177 18.7415 28.6177 19.5876 27.8692L26 22.1967L32.4124 27.8692C33.2585 28.6177 34.6304 28.6177 35.4765 27.8692C36.3226 27.1207 36.3226 25.9071 35.4765 25.1586L27.5321 18.1308C27.1257 17.7714 26.5746 17.5694 26 17.5694C25.4254 17.5694 24.8743 17.7714 24.4679 18.1308L16.5235 25.1586C15.6774 25.9071 15.6774 27.1207 16.5235 27.8692Z" fill="black"/>
</svg>
