<svg width="55" height="60" viewBox="0 0 55 60" fill="none" xmlns="http://www.w3.org/2000/svg">
<path fill-rule="evenodd" clip-rule="evenodd" d="M4.95084 7.875C4.95084 3.95954 7.39502 0.5 10.6848 0.5H44.3152C47.605 0.5 50.0492 3.95955 50.0492 7.875V35.2678C50.0492 36.3734 49.8543 37.4426 49.5006 38.4078C49.9969 39.0101 50.4125 39.7263 50.7196 40.5346L53.9225 48.9632C55.782 53.8565 52.9244 59.5 48.5871 59.5L6.41291 59.5C2.07562 59.5 -0.782021 53.8565 1.07746 48.9631L4.28037 40.5346C4.58752 39.7263 5.00313 39.0101 5.49944 38.4078C5.1457 37.4426 4.95084 36.3734 4.95084 35.2678V7.875ZM10.6848 36.3214H44.3152C44.5633 36.3214 44.9871 36.0073 44.9871 35.2678V7.875C44.9871 7.13548 44.5633 6.82143 44.3152 6.82143H10.6848C10.4367 6.82143 10.0129 7.13548 10.0129 7.875V35.2678C10.0129 36.0073 10.4367 36.3214 10.6848 36.3214ZM9.61582 42.6428C9.29 42.6428 8.9933 42.8771 8.85361 43.2447L5.65071 51.6733C5.38507 52.3723 5.79331 53.1785 6.41292 53.1785L48.5871 53.1786C49.2067 53.1786 49.6149 52.3724 49.3493 51.6733L46.1464 43.2447C46.0067 42.8771 45.71 42.6428 45.3842 42.6428H9.61582Z" fill="black"/>
</svg>
