<svg width="55" height="60" viewBox="0 0 55 60" fill="none" xmlns="http://www.w3.org/2000/svg">
<path fill-rule="evenodd" clip-rule="evenodd" d="M27.5 0.5C12.5883 0.5 0.5 13.7076 0.5 30C0.5 46.2924 12.5883 59.5 27.5 59.5C42.4117 59.5 54.5 46.2924 54.5 30C54.5 13.7076 42.4117 0.5 27.5 0.5ZM22.1823 5.60155C23.889 5.15916 25.6695 4.925 27.5 4.925C28.5332 4.925 29.5505 4.9996 30.5475 5.14413L29.1031 10.4592C28.9238 11.1191 29.1861 11.8268 29.7351 12.1644L32.8674 14.0906C33.331 14.3756 33.9046 14.3367 34.3323 13.9911L39.8674 9.51832C40.0051 9.40703 40.1197 9.27028 40.2079 9.11679C43.4964 11.5104 46.1873 14.8065 47.9844 18.6813L38.3171 17.4529C38.0295 17.4163 37.7389 17.4817 37.488 17.6394L31.9128 21.143C31.3183 21.5166 31.0746 22.3179 31.3464 23.006L34.7167 31.5397C34.8858 31.968 35.2305 32.2837 35.6461 32.3908L41.5327 33.9087L45.3325 45.7406C45.3358 45.751 45.3393 45.7614 45.3428 45.7717C41.1353 51.447 34.7054 55.075 27.5 55.075C14.8251 55.075 4.55 43.8485 4.55 30C4.55 28.3668 4.69291 26.7701 4.96581 25.2239L13.285 28.9397L12.3125 35.4402C12.2212 36.0507 12.4882 36.6586 12.9813 36.9627L19.2142 40.8059L20.1959 48.0461C20.2174 48.205 20.2626 48.3591 20.3297 48.5021L22.5699 53.2826C22.8109 53.7968 23.3043 54.1099 23.8324 54.0839C24.3605 54.0579 24.8261 53.6975 25.0237 53.1618L31.6494 35.1984C31.7892 34.8193 31.7788 34.3938 31.6207 34.0235C31.4626 33.6531 31.1709 33.371 30.8152 33.2445L24.6054 31.0357L22.016 27.1505C21.7619 26.7693 21.3563 26.5438 20.9247 26.5438H16.0431L15.5542 19.4336L24.9895 16.015C25.3558 15.8823 25.6526 15.5847 25.8049 15.1973C25.9573 14.8098 25.9506 14.3697 25.7866 13.9881L22.1823 5.60155Z" fill="black"/>
</svg>
