<svg width="49" height="47" viewBox="0 0 49 47" fill="none" xmlns="http://www.w3.org/2000/svg">
<path d="M24.5558 0H24.4442C10.944 0 0 10.4973 0 23.4465V23.5535C0 36.5027 10.944 47 24.4442 47H24.5558C38.056 47 49 36.5027 49 23.5535V23.4465C49 10.4973 38.056 0 24.5558 0Z" fill="url(#paint0_linear_134_1727)"/>
<path d="M32.0826 9.56201H16.9207C12.7319 9.56201 9.32422 12.8306 9.32422 16.8484V30.1532C9.32422 34.171 12.7319 37.4396 16.9207 37.4396H32.0826C36.2714 37.4396 39.6791 34.171 39.6791 30.1532V16.8484C39.6791 12.8306 36.2714 9.56201 32.0826 9.56201ZM12.004 16.8484C12.004 14.2483 14.21 12.1324 16.9207 12.1324H32.0826C34.7933 12.1324 36.9993 14.2483 36.9993 16.8484V30.1532C36.9993 32.7533 34.7933 34.8692 32.0826 34.8692H16.9207C14.21 34.8692 12.004 32.7533 12.004 30.1532V16.8484Z" fill="white"/>
<path d="M24.5015 30.2768C28.3967 30.2768 31.5675 27.2371 31.5675 23.4992C31.5675 19.7614 28.3985 16.7217 24.5015 16.7217C20.6046 16.7217 17.4355 19.7614 17.4355 23.4992C17.4355 27.2371 20.6046 30.2768 24.5015 30.2768ZM24.5015 19.2937C26.9204 19.2937 28.8877 21.1808 28.8877 23.5009C28.8877 25.821 26.9204 27.7081 24.5015 27.7081C22.0827 27.7081 20.1153 25.821 20.1153 23.5009C20.1153 21.1808 22.0827 19.2937 24.5015 19.2937Z" fill="white"/>
<path d="M32.2222 17.8167C33.2711 17.8167 34.126 16.9983 34.126 15.9906C34.126 14.9828 33.2728 14.1644 32.2222 14.1644C31.1716 14.1644 30.3184 14.9828 30.3184 15.9906C30.3184 16.9983 31.1716 17.8167 32.2222 17.8167Z" fill="white"/>
<defs>
<linearGradient id="paint0_linear_134_1727" x1="7.15867" y1="40.1335" x2="40.3969" y2="5.4826" gradientUnits="userSpaceOnUse">
<stop stop-color="#FAAD4F"/>
<stop offset="0.35" stop-color="#DD2A7B"/>
<stop offset="0.62" stop-color="#9537B0"/>
<stop offset="1" stop-color="#515BD4"/>
</linearGradient>
</defs>
</svg>
