<svg width="55" height="60" viewBox="0 0 55 60" fill="none" xmlns="http://www.w3.org/2000/svg">
<path fill-rule="evenodd" clip-rule="evenodd" d="M31.7229 6.82143L9.7825 6.82143C7.45223 6.82143 5.56318 9.17993 5.56318 12.0893L5.56318 47.9107C5.56318 50.8201 7.45223 53.1786 9.7825 53.1786H31.7229C33.1211 53.1786 34.2545 54.5937 34.2545 56.3393C34.2545 58.0849 33.1211 59.5 31.7229 59.5H9.7825C4.65592 59.5 0.500001 54.3113 0.500001 47.9107L0.5 12.0893C0.5 5.6887 4.65592 0.500002 9.7825 0.500001L31.7229 0.5C33.1211 0.5 34.2545 1.9151 34.2545 3.66071C34.2545 5.40633 33.1211 6.82143 31.7229 6.82143ZM40.8958 16.1758C41.8845 14.9414 43.4874 14.9414 44.476 16.1758L53.7585 27.765C54.2333 28.3578 54.5 29.1617 54.5 30C54.5 30.8383 54.2333 31.6422 53.7585 32.235L44.476 43.8242C43.4874 45.0586 41.8845 45.0586 40.8958 43.8242C39.9072 42.5899 39.9072 40.5887 40.8958 39.3543L45.8566 33.1607H16.5344C15.1362 33.1607 14.0028 31.7456 14.0028 30C14.0028 28.2544 15.1362 26.8393 16.5344 26.8393L45.8566 26.8393L40.8958 20.6457C39.9072 19.4113 39.9072 17.4101 40.8958 16.1758Z" fill="black"/>
</svg>
