<svg width="404" height="384" viewBox="0 0 404 384" fill="none" xmlns="http://www.w3.org/2000/svg">
<rect x="0.5" y="0.5" width="403" height="383" rx="14.5" fill="white" stroke="black"/>
<path fill-rule="evenodd" clip-rule="evenodd" d="M97 134.125C97 113.621 113.237 97 133.266 97H271.734C291.763 97 308 113.621 308 134.125V248.875C308 269.379 291.763 286 271.734 286H133.266C113.237 286 97 269.379 97 248.875V134.125ZM133.266 117.25C124.162 117.25 116.781 124.805 116.781 134.125V202.614L153.281 165.249C157.144 161.295 163.406 161.295 167.269 165.249L221.15 220.407L256.381 184.341C258.236 182.442 260.752 181.375 263.375 181.375C265.998 181.375 268.514 182.442 270.369 184.341L288.219 202.614V134.125C288.219 124.805 280.838 117.25 271.734 117.25H133.266ZM288.219 231.251L263.375 205.819L228.406 241.616C226.408 243.662 223.768 244.649 221.15 244.578C218.532 244.649 215.892 243.662 213.894 241.616L160.275 186.727L116.781 231.251V248.875C116.781 258.195 124.162 265.75 133.266 265.75H271.734C280.838 265.75 288.219 258.195 288.219 248.875V231.251ZM228.875 144.25C225.233 144.25 222.281 147.272 222.281 151C222.281 154.728 225.233 157.75 228.875 157.75C232.517 157.75 235.469 154.728 235.469 151C235.469 147.272 232.517 144.25 228.875 144.25ZM202.5 151C202.5 136.088 214.308 124 228.875 124C243.442 124 255.25 136.088 255.25 151C255.25 165.912 243.442 178 228.875 178C214.308 178 202.5 165.912 202.5 151Z" fill="black"/>
</svg>
