<svg width="22" height="22" viewBox="0 0 22 22" fill="none" xmlns="http://www.w3.org/2000/svg">
<path fill-rule="evenodd" clip-rule="evenodd" d="M3.7415 5.81625C3.7415 2.57898 6.81085 0 10.5323 0H11.4677C15.1892 0 18.2585 2.57898 18.2585 5.81625V6.61375C18.2585 8.6932 16.9921 10.501 15.0998 11.5282C19.0803 12.5691 22 15.7315 22 19.5067C22 20.9087 20.6756 22 19.1066 22H2.89342C1.32443 22 0 20.9087 0 19.5067C0 15.7315 2.91968 12.569 6.90017 11.5282C5.00794 10.501 3.7415 8.6932 3.7415 6.61375V5.81625ZM10.5323 2.0625C8.05466 2.0625 6.09864 3.76816 6.09864 5.81625V6.61375C6.09864 8.66184 8.05466 10.3675 10.5323 10.3675H11.4677C13.9453 10.3675 15.9014 8.66184 15.9014 6.61375V5.81625C15.9014 3.76816 13.9453 2.0625 11.4677 2.0625H10.5323ZM9.75284 13.2275C5.63931 13.2275 2.35714 16.0638 2.35714 19.5067C2.35714 19.7196 2.56825 19.9375 2.89342 19.9375H19.1066C19.4318 19.9375 19.6429 19.7196 19.6429 19.5067C19.6429 16.0638 16.3607 13.2275 12.2472 13.2275H9.75284Z" fill="black" fill-opacity="0.5"/>
</svg>
