<svg width="22" height="22" viewBox="0 0 22 22" fill="none" xmlns="http://www.w3.org/2000/svg">
<path fill-rule="evenodd" clip-rule="evenodd" d="M6.09766 0.0235815C6.3657 0.0694025 6.71631 0.20518 6.96706 0.547791L9.19335 3.58971C9.6503 4.21408 9.74713 5.0321 9.44856 5.74591L8.45739 8.11561C8.43617 8.16634 8.44906 8.20341 8.45984 8.21872C9.08818 9.11128 9.87339 10.0632 10.8618 11.0559C10.8772 11.0696 10.8924 11.0839 10.9072 11.0987C11.9137 12.1054 12.8786 12.9029 13.7826 13.5394C13.7979 13.5502 13.8349 13.5631 13.8857 13.5419L16.2548 12.5507C16.9686 12.2521 17.7866 12.3489 18.411 12.806L21.4523 15.0324C21.7949 15.2832 21.9306 15.6339 21.9764 15.9019C22.0202 16.1579 21.9957 16.4009 21.9623 16.5865C21.8952 16.9604 21.7434 17.3545 21.5936 17.6884C21.2877 18.3705 20.8717 19.0581 20.6699 19.3575L20.514 19.5887C20.1055 20.1949 19.4933 21.1034 18.4877 21.5538C16.7489 22.3326 14.5045 22.0294 12.3059 21.1272C10.0979 20.221 7.74832 18.6386 5.61573 16.5273C5.59805 16.5118 5.58078 16.4957 5.56394 16.4789C3.40683 14.3216 1.79189 11.9357 0.872745 9.69538C-0.0294496 7.49641 -0.332568 5.2517 0.446163 3.51269C0.896507 2.50701 1.80498 1.89464 2.4111 1.48606C2.41575 1.48293 2.42038 1.47981 2.42499 1.4767L2.64222 1.33026C2.94162 1.12842 3.62918 0.712358 4.31127 0.40638C4.6451 0.25663 5.03924 0.104823 5.4131 0.0376545C5.59865 0.00431987 5.84167 -0.0201796 6.09766 0.0235815ZM6.93773 14.9353C6.9528 14.9487 6.96758 14.9627 6.98204 14.9771C8.97689 16.9723 11.1394 18.4189 13.0889 19.2189C15.0797 20.0359 16.6661 20.1096 17.6447 19.6713C18.0409 19.4939 18.3585 19.0966 18.8132 18.4219L18.9596 18.2046C19.1111 17.9798 19.4644 17.3959 19.7118 16.8442C19.7836 16.684 19.8375 16.5462 19.8749 16.4339L17.1927 14.4704C17.1516 14.4403 17.0978 14.4339 17.0508 14.4536L14.6816 15.4447C14.0104 15.7256 13.2198 15.6658 12.5952 15.226C11.6044 14.5283 10.5628 13.6668 9.48888 12.5972C9.47294 12.5831 9.45733 12.5684 9.44208 12.5532C8.3539 11.4649 7.4797 10.4094 6.7734 9.40614C6.33368 8.78152 6.27391 7.99091 6.55468 7.31964L7.54585 4.94994C7.56551 4.90294 7.55913 4.84907 7.52904 4.80796L5.56565 2.12526C5.45333 2.16263 5.31551 2.21653 5.15537 2.28837C4.6037 2.53584 4.01979 2.88909 3.79505 3.0406L3.57781 3.18705C2.90319 3.64184 2.50596 3.95944 2.3285 4.35574C1.89021 5.33451 1.96392 6.92125 2.78085 8.9124C3.56947 10.8346 4.98638 12.9638 6.93773 14.9353Z" fill="black" fill-opacity="0.5"/>
</svg>
