<svg width="22" height="22" viewBox="0 0 22 22" fill="none" xmlns="http://www.w3.org/2000/svg">
<path fill-rule="evenodd" clip-rule="evenodd" d="M3.85 6.28571C3.85 2.81421 7.13325 0 11.1833 0C15.2334 0 18.5167 2.81421 18.5167 6.28571V8.64286H18.7917C20.5636 8.64286 22 9.87407 22 11.3929V19.25C22 20.7688 20.5636 22 18.7917 22H3.20833C1.43642 22 0 20.7688 0 19.25V11.3929C0 9.87407 1.43642 8.64286 3.20833 8.64286H3.85V6.28571ZM6.6 8.64286H15.7667V6.28571C15.7667 4.11602 13.7146 2.35714 11.1833 2.35714C8.65203 2.35714 6.6 4.11602 6.6 6.28571V8.64286ZM3.20833 11C2.9552 11 2.75 11.1759 2.75 11.3929V19.25C2.75 19.467 2.9552 19.6429 3.20833 19.6429H18.7917C19.0448 19.6429 19.25 19.467 19.25 19.25V11.3929C19.25 11.1759 19.0448 11 18.7917 11H3.20833Z" fill="black" fill-opacity="0.5"/>
</svg>
