<svg width="18" height="19" viewBox="0 0 18 19" fill="none" xmlns="http://www.w3.org/2000/svg">
<path fill-rule="evenodd" clip-rule="evenodd" d="M0 5.25C0 2.62665 2.12665 0.5 4.75 0.5H13.25C15.8734 0.5 18 2.62665 18 5.25V13.75C18 16.3734 15.8734 18.5 13.25 18.5H4.75C2.12665 18.5 0 16.3734 0 13.75V5.25ZM4.75 2C2.95507 2 1.5 3.45507 1.5 5.25V13.75C1.5 15.5449 2.95507 17 4.75 17H13.25C15.0449 17 16.5 15.5449 16.5 13.75V5.25C16.5 3.45507 15.0449 2 13.25 2H4.75ZM9 5.5C9.41421 5.5 9.75 5.83579 9.75 6.25V8.75H12.25C12.6642 8.75 13 9.08579 13 9.5C13 9.91421 12.6642 10.25 12.25 10.25H9.75V12.75C9.75 13.1642 9.41421 13.5 9 13.5C8.58579 13.5 8.25 13.1642 8.25 12.75V10.25H5.75C5.33579 10.25 5 9.91421 5 9.5C5 9.08579 5.33579 8.75 5.75 8.75H8.25V6.25C8.25 5.83579 8.58579 5.5 9 5.5Z" fill="black"/>
</svg>
