<svg width="29" height="33" viewBox="0 0 29 33" fill="none" xmlns="http://www.w3.org/2000/svg">
<path fill-rule="evenodd" clip-rule="evenodd" d="M14.5 3.09375C9.57464 3.09375 5.35207 6.53355 3.59247 11.4231C3.30796 12.2137 2.5141 12.5921 1.81933 12.2684C1.12457 11.9446 0.791993 11.0413 1.0765 10.2507C3.23984 4.23927 8.43325 0 14.5 0C19.3547 0 23.6502 2.71458 26.2812 6.87956V1.54688C26.2812 0.69256 26.8899 0 27.6406 0C28.3914 0 29 0.69256 29 1.54688V10.8281C29 11.6824 28.3914 12.375 27.6406 12.375H26.8133C26.7144 12.3874 26.6156 12.3871 26.5185 12.375H19.4844C18.7336 12.375 18.125 11.6824 18.125 10.8281C18.125 9.97381 18.7336 9.28125 19.4844 9.28125H24.4296C22.3351 5.55862 18.6694 3.09375 14.5 3.09375ZM27.1784 20.7402C27.873 21.0645 28.2051 21.9681 27.9202 22.7585C25.7549 28.765 20.5637 33 14.5 33C9.6453 33 5.34984 30.2854 2.71875 26.1204V31.4531C2.71875 32.3074 2.11014 33 1.35938 33C0.608613 33 0 32.3074 0 31.4531V22.1719C0 21.3176 0.608613 20.625 1.35938 20.625H9.51562C10.2664 20.625 10.875 21.3176 10.875 22.1719C10.875 23.0262 10.2664 23.7188 9.51562 23.7188H4.57044C6.66489 27.4414 10.3306 29.9062 14.5 29.9062C19.4229 29.9062 23.6436 26.4699 25.4049 21.5843C25.6898 20.7939 26.4839 20.416 27.1784 20.7402Z" fill="white"/>
</svg>
