<svg width="16" height="16" viewBox="0 0 16 16" fill="none" xmlns="http://www.w3.org/2000/svg">
<path fill-rule="evenodd" clip-rule="evenodd" d="M6.76957 1.5C4.09852 1.5 1.9332 3.81998 1.9332 6.68182C1.9332 9.54366 4.09852 11.8636 6.76957 11.8636C9.44062 11.8636 11.6059 9.54366 11.6059 6.68182C11.6059 3.81998 9.44062 1.5 6.76957 1.5ZM0.533203 6.68182C0.533203 2.99155 3.32532 0 6.76957 0C10.2138 0 13.0059 2.99155 13.0059 6.68182C13.0059 8.25674 12.4974 9.7044 11.6466 10.8466L15.2615 14.7197C15.5349 15.0126 15.5349 15.4874 15.2615 15.7803C14.9881 16.0732 14.5449 16.0732 14.2716 15.7803L10.6567 11.9072C9.59064 12.8188 8.2395 13.3636 6.76957 13.3636C3.32532 13.3636 0.533203 10.3721 0.533203 6.68182Z" fill="black"/>
</svg>
