<svg width="13" height="25" viewBox="0 0 13 25" fill="none" xmlns="http://www.w3.org/2000/svg">
<path fill-rule="evenodd" clip-rule="evenodd" d="M5 2.34375C3.31553 2.34375 1.95 3.98501 1.95 6.00961V17.1875C1.95 20.2078 3.9871 22.6562 6.5 22.6562C9.01289 22.6562 11.05 20.2078 11.05 17.1875V8.98438C11.05 8.33717 11.4865 7.8125 12.025 7.8125C12.5635 7.8125 13 8.33717 13 8.98438V17.1875C13 21.5022 10.0899 25 6.5 25C2.91015 25 0 21.5022 0 17.1875V6.00961C0 2.6906 2.23858 0 5 0C7.76142 0 10 2.6906 10 6.00962V17.1124C10 19.3112 8.51694 21.0938 6.6875 21.0938C4.85806 21.0938 3.375 19.3112 3.375 17.1124V5.85938C3.375 5.21217 3.81152 4.6875 4.35 4.6875C4.88848 4.6875 5.325 5.21217 5.325 5.85938V17.1124C5.325 18.0168 5.93501 18.75 6.6875 18.75C7.43999 18.75 8.05 18.0168 8.05 17.1124V6.00962C8.05 3.98501 6.68447 2.34375 5 2.34375Z" fill="black"/>
</svg>
