<svg width="20" height="22" viewBox="0 0 20 22" fill="none" xmlns="http://www.w3.org/2000/svg">
<path fill-rule="evenodd" clip-rule="evenodd" d="M9.37417 0.263413C9.7303 -0.0878042 10.2697 -0.0878043 10.6258 0.263413L19.6883 9.20091C20.0738 9.58111 20.1062 10.2331 19.7605 10.6572C19.4149 11.0812 18.8222 11.1168 18.4367 10.7366L17.5 9.81283V20.9688C17.5 21.5383 17.0803 22 16.5625 22H12.1875C11.6697 22 11.25 21.5383 11.25 20.9688V14.4375C11.25 13.6781 10.6904 13.0625 10 13.0625C9.30964 13.0625 8.75 13.6781 8.75 14.4375V20.9688C8.75 21.5383 8.33027 22 7.8125 22H3.43751C2.91974 22 2.50001 21.5383 2.50001 20.9688V9.81283L1.56333 10.7366C1.17782 11.1168 0.585107 11.0812 0.239475 10.6572C-0.106158 10.2331 -0.0738283 9.58111 0.311685 9.20092L9.37417 0.263413ZM4.375 7.96369V19.9375H6.875V14.4375C6.875 12.539 8.27411 11 10 11C11.7259 11 13.125 12.539 13.125 14.4375V19.9375H15.625V7.9637L10 2.41628L4.375 7.96369Z" fill="black"/>
</svg>
