<svg width="22" height="18" viewBox="0 0 22 18" fill="none" xmlns="http://www.w3.org/2000/svg">
<path fill-rule="evenodd" clip-rule="evenodd" d="M0 4.75C0 2.12665 2.59924 0 5.80556 0H16.1944C19.4008 0 22 2.12665 22 4.75V13.25C22 15.8734 19.4008 18 16.1944 18H5.80556C2.59924 18 0 15.8734 0 13.25V4.75ZM5.80556 1.5C3.61176 1.5 1.83333 2.95507 1.83333 4.75V13.25C1.83333 15.0449 3.61176 16.5 5.80556 16.5H16.1944C18.3882 16.5 20.1667 15.0449 20.1667 13.25V4.75C20.1667 2.95507 18.3882 1.5 16.1944 1.5H5.80556Z" fill="black"/>
<path fill-rule="evenodd" clip-rule="evenodd" d="M6.99071 7.09467C7.34869 6.80178 7.92909 6.80178 8.28707 7.09467L11 9.31434L13.7129 7.09467C14.0709 6.80178 14.6513 6.80178 15.0093 7.09467C15.3673 7.38756 15.3673 7.86244 15.0093 8.15533L11.6482 10.9053C11.4763 11.046 11.2431 11.125 11 11.125C10.7569 11.125 10.5237 11.046 10.3518 10.9053L6.99071 8.15533C6.63273 7.86244 6.63273 7.38756 6.99071 7.09467Z" fill="black"/>
</svg>
