<svg width="49" height="47" viewBox="0 0 49 47" fill="none" xmlns="http://www.w3.org/2000/svg">
<path d="M24.5558 0H24.4442C10.944 0 0 10.4973 0 23.4465V23.5535C0 36.5027 10.944 47 24.4442 47H24.5558C38.056 47 49 36.5027 49 23.5535V23.4465C49 10.4973 38.056 0 24.5558 0Z" fill="black"/>
<path d="M36.9242 18.6661V23.1037C36.1156 23.028 35.065 22.8518 33.9028 22.4434C32.3852 21.9099 31.2556 21.1805 30.5157 20.6157V29.5849L30.4969 29.5569C30.5089 29.7348 30.5157 29.9159 30.5157 30.0987C30.5157 34.5528 26.7373 38.1787 22.0919 38.1787C17.4464 38.1787 13.668 34.5528 13.668 30.0987C13.668 25.6445 17.4464 22.017 22.0919 22.017C22.5468 22.017 22.9931 22.0515 23.4292 22.1191V26.4925C23.0103 26.3493 22.5605 26.2719 22.0919 26.2719C19.8928 26.2719 18.1022 27.9877 18.1022 30.0987C18.1022 32.2097 19.8928 33.9255 22.0919 33.9255C24.291 33.9255 26.0815 32.208 26.0815 30.0987C26.0815 30.0196 26.0798 29.9406 26.0746 29.8616V12.4319H30.6977C30.7149 12.8073 30.7303 13.186 30.7475 13.5615C30.7784 14.3008 31.0531 15.0105 31.532 15.5918C32.0934 16.2751 32.9226 17.0688 34.0865 17.7028C35.1766 18.2956 36.1998 18.5491 36.9242 18.6694V18.6661Z" fill="#FF004F"/>
<path d="M35.3344 15.0634V19.5011C34.5258 19.4253 33.4752 19.2491 32.313 18.8408C30.7954 18.3073 29.6658 17.5778 28.9259 17.013V25.9823L28.907 25.9543C28.919 26.1321 28.9259 26.3132 28.9259 26.496C28.9259 30.9502 25.1474 34.5761 20.502 34.5761C15.8566 34.5761 12.0781 30.9502 12.0781 26.496C12.0781 22.0418 15.8566 18.4143 20.502 18.4143C20.9569 18.4143 21.4033 18.4489 21.8393 18.5164V22.8899C21.4204 22.7466 20.9707 22.6692 20.502 22.6692C18.3029 22.6692 16.5124 24.385 16.5124 26.496C16.5124 28.607 18.3029 30.3228 20.502 30.3228C22.7011 30.3228 24.4916 28.6054 24.4916 26.496C24.4916 26.417 24.4899 26.3379 24.4848 26.2589V8.82593H29.1079C29.125 9.20136 29.1405 9.58009 29.1576 9.95552C29.1885 10.6949 29.4632 11.4046 29.9422 11.9858C30.5035 12.6692 31.3327 13.4629 32.4966 14.0968C33.5868 14.688 34.6099 14.9432 35.3344 15.0634Z" fill="#00F7EF"/>
<path d="M36.3461 17.003V21.4407C35.5375 21.3649 34.4869 21.1887 33.3247 20.7804C31.8071 20.2468 30.6775 19.5174 29.9376 18.9526V27.9218L29.9187 27.8938C29.9307 28.0717 29.9376 28.2528 29.9376 28.4356C29.9376 32.8897 26.1591 36.5156 21.5137 36.5156C16.8683 36.5156 13.0898 32.8897 13.0898 28.4356C13.0898 23.9814 16.8683 20.3539 21.5137 20.3539C21.9687 20.3539 22.415 20.3885 22.8511 20.456V24.8294C22.4322 24.6862 21.9824 24.6088 21.5137 24.6088C19.3146 24.6088 17.5241 26.3246 17.5241 28.4356C17.5241 30.5466 19.3146 32.2624 21.5137 32.2624C23.7128 32.2624 25.5034 30.5449 25.5034 28.4356C25.5034 28.3565 25.5016 28.2775 25.4965 28.1985V10.7688H30.1196C30.1368 11.1442 30.1522 11.523 30.1694 11.8984C30.2003 12.6377 30.4749 13.3474 30.9539 13.9287C31.5153 14.6121 32.3444 15.4057 33.5084 16.0397C34.5985 16.6308 35.6216 16.8861 36.3461 17.0063V17.003Z" fill="white"/>
</svg>
