<svg width="49" height="47" viewBox="0 0 49 47" fill="none" xmlns="http://www.w3.org/2000/svg">
<path d="M48.9966 23.5008C48.9966 35.3698 39.8245 45.1821 27.9093 46.7744C26.7952 46.9226 25.6553 47 24.4983 47C23.1627 47 21.8512 46.8979 20.574 46.7003C8.9094 44.8989 0 35.1969 0 23.5008C0 10.522 10.9694 0 24.5 0C38.0306 0 49 10.522 49 23.5008H48.9966Z" fill="#1C1C1B"/>
<path d="M9.93562 10.3639L21.2346 24.8543L9.86523 36.636H12.4248L22.3796 26.3215L30.4221 36.636H39.1307L27.1965 21.3305L37.7797 10.3639H35.2201L26.0532 19.8633L18.6459 10.3639H9.93732H9.93562ZM13.6985 12.1719H17.6983L35.3643 34.828H31.3645L13.6985 12.1719Z" fill="white"/>
</svg>
