<svg width="88" height="85" viewBox="0 0 88 85" fill="none" xmlns="http://www.w3.org/2000/svg">
<path d="M87.5 42.5C87.5 65.6797 68.0409 84.5 44 84.5C19.9591 84.5 0.5 65.6797 0.5 42.5C0.5 19.3202 19.9591 0.5 44 0.5C68.0409 0.5 87.5 19.3202 87.5 42.5Z" fill="white" stroke="black"/>
<path fill-rule="evenodd" clip-rule="evenodd" d="M32.2925 32.8394C32.2925 26.8063 37.4546 22 43.7134 22H45.2866C51.5454 22 56.7075 26.8063 56.7075 32.8394V34.3256C56.7075 38.201 54.5775 41.5701 51.3952 43.4844C58.0896 45.4241 63 51.3178 63 58.3533C63 60.9663 60.7725 63 58.1338 63H30.8662C28.2274 63 26 60.9663 26 58.3533C26 51.3178 30.9104 45.4241 37.6048 43.4844C34.4225 41.5701 32.2925 38.201 32.2925 34.3256V32.8394ZM43.7134 25.8438C39.5465 25.8438 36.2568 29.0225 36.2568 32.8394V34.3256C36.2568 38.1425 39.5465 41.3212 43.7134 41.3212H45.2866C49.4535 41.3212 52.7432 38.1425 52.7432 34.3256V32.8394C52.7432 29.0225 49.4535 25.8438 45.2866 25.8438H43.7134ZM42.4025 46.6512C35.4843 46.6512 29.9643 51.9371 29.9643 58.3533C29.9643 58.7501 30.3193 59.1562 30.8662 59.1562H58.1338C58.6807 59.1562 59.0357 58.7501 59.0357 58.3533C59.0357 51.9371 53.5157 46.6512 46.5975 46.6512H42.4025Z" fill="black"/>
</svg>
