<svg width="204" height="186" viewBox="0 0 204 186" fill="none" xmlns="http://www.w3.org/2000/svg">
<rect x="0.5" y="0.5" width="203" height="185" rx="24.5" stroke="black" stroke-opacity="0.5"/>
<path fill-rule="evenodd" clip-rule="evenodd" d="M70 80.2874C70 74.7471 74.6152 70 80.6397 70H107.414C113.461 70 118 74.7695 118 80.2874V83.6775L129.943 76.933C130.766 76.4682 131.796 76.4503 132.638 76.8864C133.479 77.3224 134 78.1443 134 79.0357V106.964C134 107.856 133.479 108.678 132.638 109.114C131.796 109.55 130.766 109.532 129.943 109.067L118 102.323V105.713C118 111.23 113.461 116 107.414 116H80.6397C74.6152 116 70 111.253 70 105.713V80.2874ZM80.6397 74.9286C77.8574 74.9286 75.3333 77.1866 75.3333 80.2874V105.713C75.3333 108.813 77.8574 111.071 80.6397 111.071H107.414C110.174 111.071 112.667 108.836 112.667 105.713V97.9286C112.667 97.0372 113.188 96.2153 114.029 95.7792C114.87 95.3432 115.901 95.361 116.724 95.8258L128.667 102.57V83.4297L116.724 90.1742C115.901 90.639 114.87 90.6568 114.029 90.2208C113.188 89.7847 112.667 88.9628 112.667 88.0714V80.2874C112.667 77.1641 110.174 74.9286 107.414 74.9286H80.6397Z" fill="black"/>
</svg>
