<svg width="52" height="46" viewBox="0 0 52 46" fill="none" xmlns="http://www.w3.org/2000/svg">
<path fill-rule="evenodd" clip-rule="evenodd" d="M26 3.83333C14.0338 3.83333 4.33333 12.4145 4.33333 23C4.33333 33.5855 14.0338 42.1667 26 42.1667C37.9662 42.1667 47.6667 33.5855 47.6667 23C47.6667 12.4145 37.9662 3.83333 26 3.83333ZM0 23C0 10.2975 11.6406 0 26 0C40.3594 0 52 10.2975 52 23C52 35.7025 40.3594 46 26 46C11.6406 46 0 35.7025 0 23ZM16.5235 18.1308C17.3696 17.3823 18.7415 17.3823 19.5876 18.1308L26 23.8033L32.4124 18.1308C33.2585 17.3823 34.6304 17.3823 35.4765 18.1308C36.3226 18.8793 36.3226 20.0929 35.4765 20.8414L27.5321 27.8692C27.1257 28.2286 26.5746 28.4306 26 28.4306C25.4254 28.4306 24.8743 28.2286 24.4679 27.8692L16.5235 20.8414C15.6774 20.0929 15.6774 18.8793 16.5235 18.1308Z" fill="black"/>
</svg>
