<svg width="96" height="90" viewBox="0 0 96 90" fill="none" xmlns="http://www.w3.org/2000/svg">
<path d="M48.4483 82.0168L83.394 74.3877C89.9796 66.9344 93.9382 57.3673 93.9382 46.933C93.9382 23.1478 73.3712 3.86621 48.0004 3.86621C22.6296 3.86621 2.0625 23.1478 2.0625 46.933C2.0625 57.4674 6.09919 67.1165 12.7986 74.6002L48.4483 82.0168Z" fill="#FFC839"/>
<path d="M22.0485 76.9102C23.94 78.2872 26.2743 79.0352 28.6785 79.0352C31.0826 79.0352 33.4168 78.2872 35.3083 76.9102C36.7063 75.8924 38.1973 74.5069 39.5038 72.7635C39.1385 72.664 38.7691 72.5701 38.3951 72.4822C37.9918 72.3875 37.6374 72.16 37.4085 71.8575C36.3536 70.4623 36.0613 68.3055 36.0041 66.7412C35.264 67.5493 34.4874 68.225 33.7455 68.7652C30.7695 70.9318 26.5835 70.929 23.6113 68.7652C22.8691 68.225 22.0927 67.5491 21.3526 66.7412C21.2938 68.3401 20.9902 70.5585 19.877 71.9494C19.6871 72.1867 19.3944 72.3806 19.0436 72.4622C18.6421 72.5554 18.2461 72.657 17.8535 72.764C19.1596 74.5072 20.6505 75.8924 22.0485 76.9102Z" fill="#FCAD6D"/>
<path d="M28.4088 70.3839C26.7089 70.3322 25.0231 69.793 23.6113 68.7652C22.8691 68.225 22.0927 67.5491 21.3526 66.7412C21.2938 68.3401 20.9902 70.5585 19.877 71.9494C19.6871 72.1867 19.3944 72.3806 19.0436 72.4622C18.6421 72.5554 18.2461 72.657 17.8535 72.764C19.1596 74.5071 20.6505 75.8924 22.0485 76.91C22.9606 77.5739 23.9761 78.09 25.0524 78.4482C27.1535 75.849 28.0376 72.6223 28.4088 70.3839Z" fill="#FD995B"/>
<path d="M42.148 81.6026C43.8409 78.4284 46.5428 77.0619 48.4486 76.4753C47.8739 76.3173 47.3853 76.0179 46.5687 75.5864C44.248 74.3594 41.8448 73.381 39.2264 72.6928C37.9474 74.4162 36.4799 75.7813 35.1057 76.7817C33.2718 78.1167 31.0086 78.842 28.6778 78.842C26.347 78.842 24.0839 78.1169 22.2499 76.7817C20.8754 75.7811 19.4074 74.4157 18.1285 72.6916C16.2657 73.182 14.5 73.8271 12.7988 74.6002C19.6825 82.2898 29.3791 87.6905 40.4037 89.4112C40.7624 86.6316 41.3243 83.1469 42.148 81.6026Z" fill="#3C58A0"/>
<path d="M20.869 81.6853C22.7058 80.8689 24.1113 79.6569 25.1855 78.2807C24.1336 77.9332 23.1408 77.4299 22.25 76.7815C20.8754 75.7809 19.4075 74.4155 18.1285 72.6914C16.2657 73.1818 14.5 73.827 12.7988 74.6C15.1743 77.2535 17.885 79.6341 20.869 81.6853Z" fill="#1C2E7A"/>
<path d="M65.3027 12.9598C66.4504 12.9598 67.3807 12.0876 67.3807 11.0117C67.3807 9.93571 66.4504 9.06348 65.3027 9.06348C64.155 9.06348 63.2246 9.93571 63.2246 11.0117C63.2246 12.0876 64.155 12.9598 65.3027 12.9598Z" fill="#4FABF7"/>
<path d="M58.2148 12.9598C59.3625 12.9598 60.2928 12.0876 60.2928 11.0117C60.2928 9.93571 59.3625 9.06348 58.2148 9.06348C57.0671 9.06348 56.1367 9.93571 56.1367 11.0117C56.1367 12.0876 57.0671 12.9598 58.2148 12.9598Z" fill="#4FABF7"/>
<path d="M51.1249 12.9598C52.2726 12.9598 53.203 12.0876 53.203 11.0117C53.203 9.93571 52.2726 9.06348 51.1249 9.06348C49.9773 9.06348 49.0469 9.93571 49.0469 11.0117C49.0469 12.0876 49.9773 12.9598 51.1249 12.9598Z" fill="#4FABF7"/>
<path d="M80.6928 53.3633C80.72 54.7581 80.573 56.1865 80.414 57.1391C79.6632 60.2411 78.5793 62.942 77.1929 65.1663C76.5642 66.1749 75.7801 67.0916 74.8617 67.8912L74.7441 67.9937V68.6884C74.7441 69.4086 75.0426 70.0745 75.5508 70.6878C78.3957 70.5266 80.8143 69.9862 82.7208 69.3708C85.0156 68.6299 86.02 66.0797 84.7662 64.1313C81.814 59.5438 82.2539 53.3633 82.2539 53.3633H80.6928Z" fill="#2A428C"/>
<path d="M84.7644 64.1315C84.4875 63.7012 84.2404 63.2567 84.0199 62.8048C80.5839 64.6733 79.2109 62.0257 79.2109 62.0257C79.2109 62.0257 79.1222 61.9037 78.9594 61.6768C78.4402 62.9419 77.8504 64.1087 77.1909 65.1664C76.5623 66.175 75.7779 67.0917 74.8597 67.8913L74.7422 67.9938V68.6885C74.7422 69.4087 75.0407 70.0747 75.5488 70.6878C78.3937 70.5266 80.8123 69.9863 82.7188 69.3709C85.0138 68.6301 86.0183 66.0797 84.7644 64.1315Z" fill="#1C2E7A"/>
<path d="M55.8461 69.3714C57.7524 69.9868 60.1712 70.527 63.0161 70.6884C63.5244 70.0751 63.8229 69.409 63.8229 68.689V67.8358L63.7104 67.734C62.87 66.9734 62.1459 66.1098 61.5583 65.1671C60.1712 62.9412 59.0876 60.2415 58.338 57.143C58.1737 56.2446 58.0254 54.7927 58.0584 53.3643H56.3132C56.3132 53.3643 56.753 59.5445 53.8009 64.1323C52.5469 66.0801 53.5515 68.6305 55.8461 69.3714Z" fill="#1C2E7A"/>
<path d="M76.0415 35.5528C74.2727 34.6973 72.0733 34.1035 69.3754 34.1035C66.6774 34.1035 64.478 34.6971 62.7092 35.5528C58.8371 37.4256 56.4512 41.1443 56.4512 45.1568V50.1066L56.4514 50.1082C57.062 50.0949 57.7376 50.2824 58.1728 50.5544C58.3333 50.0623 58.5527 49.6364 58.8495 49.323C59.1165 49.0409 59.2841 48.6918 59.2959 48.3184C59.3415 46.8895 59.7414 43.5126 62.4255 42.22C63.1732 41.8599 64.0869 42.1346 64.5069 42.8173C66.1237 45.4453 69.8951 48.9083 78.282 47.4325C78.8767 47.3279 79.4357 47.7424 79.4542 48.3096C79.4544 48.3126 79.4544 48.3156 79.4544 48.3186C79.4662 48.692 79.6339 49.0411 79.901 49.3232C80.1977 49.6366 80.4172 50.0627 80.5775 50.5545C81.0127 50.2826 81.6883 50.095 82.299 50.1084L82.2992 50.1068V45.157C82.2995 41.1443 79.9136 37.4256 76.0415 35.5528Z" fill="#2A428C"/>
<path d="M69.2122 46.5507C65.0553 39.1058 72.8652 34.4673 72.8652 34.4673C71.8072 34.2379 70.6465 34.1045 69.3734 34.1045C66.6755 34.1045 64.4761 34.6981 62.7072 35.5538C58.8352 37.4266 56.4492 41.1452 56.4492 45.1578V50.1076L56.4494 50.1092C57.0601 50.0958 57.7357 50.2834 58.1708 50.5553C58.3313 50.0633 58.5507 49.6374 58.8473 49.324C59.1143 49.0419 59.282 48.6928 59.294 48.3194C59.3395 46.8905 59.7395 43.5135 62.4235 42.221C63.1713 41.8608 64.085 42.1356 64.505 42.8183C65.3789 44.239 66.8849 45.9024 69.4072 46.8989C69.3421 46.7825 69.277 46.6667 69.2122 46.5507Z" fill="#1C2E7A"/>
<path d="M58.0656 57.1908C58.0656 57.1908 57.3646 53.0316 58.172 50.5547C57.4394 50.097 56.024 49.8734 55.3874 50.4568C54.0841 51.6512 55.039 53.4551 55.496 54.5945C55.6362 54.9443 55.7268 55.2982 55.7676 55.6527C55.8565 56.423 56.302 57.5505 58.1493 57.5239C58.1215 57.4128 58.093 57.3037 58.0656 57.1908Z" fill="#FD995B"/>
<path d="M83.3607 50.4561C82.7242 49.8726 81.3087 50.0961 80.5762 50.554C81.3835 53.0309 80.6825 57.1901 80.6825 57.1901C80.6551 57.3029 80.6266 57.4121 80.5987 57.5232C82.4459 57.5497 82.8912 56.4222 82.9803 55.652C83.0212 55.2974 83.1117 54.9436 83.252 54.5938C83.7091 53.4544 84.6641 51.6505 83.3607 50.4561Z" fill="#FCAD6D"/>
<path d="M26.2269 34.2467C18.8696 35.1865 18.1702 39.0972 18.167 40.532C18.1663 40.8329 17.9885 41.1117 17.7 41.2434C13.8729 42.9887 15.9363 51.4007 15.9363 51.4007C16.3207 51.4248 16.8971 51.734 17.1971 51.8702C17.2706 51.4415 17.3906 51.0196 17.5599 50.6116C17.6889 50.3008 17.8503 49.9867 18.0521 49.6902C18.4022 49.1755 18.5615 48.5682 18.5139 47.961C18.3763 46.2062 18.2685 42.9113 20.7393 41.8691C22.8326 40.9862 25.4004 41.4974 27.0378 42.0078C28.1013 42.3393 29.2532 42.3393 30.3167 42.0078C31.9541 41.4974 34.5219 40.986 36.6152 41.8691C39.0789 42.9083 38.9778 46.1865 38.8417 47.9461C38.7945 48.5578 38.9495 49.1713 39.3022 49.69C39.5105 49.9962 39.6757 50.3209 39.8068 50.6415C39.9697 51.0402 40.0856 51.4518 40.1572 51.8702C40.5354 51.6985 41.2502 51.3481 41.7125 51.4093C41.7692 49.5699 41.9503 47.5871 41.9503 47.5871C44.1303 37.5759 34.1488 33.2348 26.2269 34.2467Z" fill="#2A428C"/>
<path d="M26.2269 34.2472C18.8696 35.1869 18.1702 39.0977 18.167 40.5324C18.1663 40.8333 17.9885 41.1121 17.7 41.2438C13.8729 42.9891 15.9363 51.4011 15.9363 51.4011C16.3207 51.4252 16.8971 51.7344 17.1971 51.8706C17.2706 51.4419 17.3906 51.02 17.5599 50.612C17.6889 50.3013 17.8503 49.9871 18.0521 49.6906C18.4022 49.1759 18.5615 48.5686 18.5139 47.9614C18.3763 46.2066 18.2685 42.9118 20.7393 41.8696C22.8326 40.9866 25.4004 41.4978 27.0378 42.0083C27.4858 42.1478 27.9495 42.2252 28.4156 42.2471C28.3441 42.1324 28.2678 42.0183 28.1825 41.9058C25.0261 37.7468 29.4136 34.7162 30.2604 34.1865C28.9023 34.0598 27.5366 34.0798 26.2269 34.2472Z" fill="#1C2E7A"/>
<path d="M42.3646 51.6481C41.7916 51.1558 40.6501 51.4054 40.1566 51.7068C40.2648 52.3381 40.271 52.9839 40.1774 53.6215L39.595 57.5982C39.595 57.9188 39.5843 58.2332 39.5645 58.5423C40.9846 58.9439 41.69 57.7486 41.8088 56.9282C41.86 56.5751 41.9436 56.2271 42.0597 55.8875C42.4375 54.7814 43.8003 52.8816 42.3646 51.6481Z" fill="#FCAD6D"/>
<path d="M14.9887 51.6481C15.5617 51.1558 16.7032 51.4054 17.1967 51.7068C17.0886 52.3381 17.0824 52.9839 17.1759 53.6215L17.7583 57.5982C17.7583 57.9188 17.7692 58.2332 17.7889 58.5423C16.3687 58.9439 15.6632 57.7486 15.5445 56.9282C15.4933 56.5751 15.4097 56.2271 15.2936 55.8875C14.9158 54.7814 13.5531 52.8816 14.9887 51.6481Z" fill="#FD995B"/>
<path d="M39.98 50.4779C39.849 50.1572 39.6838 49.8326 39.4755 49.5262C39.1228 49.0075 38.9677 48.394 39.015 47.7823C39.1509 46.0227 39.078 42.5814 36.6142 41.5422C34.521 40.6593 31.9536 41.1704 30.3161 41.6809C29.2528 42.0124 28.1002 42.0124 27.0367 41.6809C25.3993 41.1704 22.8317 40.6593 20.7386 41.5422C18.2677 42.5844 18.2016 46.0426 18.339 47.7974C18.3866 48.4045 18.2272 49.0117 17.8772 49.5265C17.6754 49.8233 17.5142 50.1372 17.3852 50.448C16.9665 51.4563 16.8444 52.5496 17.0014 53.6203L17.5839 57.5979C17.5839 63.3162 20.8401 67.2029 23.6096 69.2193C25.0552 70.2717 26.8393 70.8435 28.6766 70.8435C30.5139 70.8435 32.298 70.2719 33.7436 69.2193C36.5132 67.2031 39.7693 63.3162 39.7693 57.5979L40.3517 53.6212C40.5067 52.5611 40.3892 51.4782 39.98 50.4779Z" fill="#F9BA8F"/>
<path d="M31.6984 69.2193C28.9288 67.2031 25.6727 63.3162 25.6727 57.5979L25.0901 53.6203C24.9334 52.5496 25.0554 51.4563 25.4739 50.448C25.6029 50.1372 25.7644 49.8233 25.9659 49.5265C26.316 49.0119 26.4754 48.4045 26.4277 47.7974C26.3034 46.2106 26.3462 43.2318 28.1818 41.905C27.7944 41.8704 27.4099 41.7973 27.0367 41.6809C25.3993 41.1704 22.8317 40.6593 20.7386 41.5422C18.2677 42.5844 18.2016 46.0426 18.339 47.7974C18.3866 48.4045 18.2272 49.0117 17.8772 49.5265C17.6754 49.8233 17.5142 50.1372 17.3852 50.448C16.9665 51.4563 16.8444 52.5496 17.0014 53.6203L17.5839 57.5979C17.5839 63.3162 20.8401 67.2029 23.6096 69.2193C25.0552 70.2717 26.8393 70.8435 28.6766 70.8435C30.1014 70.8435 31.4932 70.4983 32.721 69.8532C32.3655 69.6665 32.0231 69.4557 31.6984 69.2193Z" fill="#FCAD6D"/>
<path d="M51.0131 27.3445C51.4527 26.3504 50.9493 25.2103 49.8889 24.7983C48.8284 24.3862 47.6124 24.858 47.1728 25.8522C46.7333 26.8464 47.2366 27.9864 48.2971 28.3985C49.3575 28.8106 50.5735 28.3387 51.0131 27.3445Z" fill="#E9EFFF"/>
<path d="M39.9082 26.5947C39.9082 27.6706 40.8386 28.5429 41.9863 28.5429C43.134 28.5429 44.0643 27.6706 44.0643 26.5947C44.0643 25.5187 43.134 24.6465 41.9863 24.6465C40.8384 24.6467 39.9082 25.5189 39.9082 26.5947Z" fill="#E9EFFF"/>
<path d="M36.8315 27.3465C37.271 26.3523 36.7677 25.2123 35.7072 24.8002C34.6468 24.3881 33.4308 24.86 32.9912 25.8542C32.5516 26.8484 33.055 27.9884 34.1154 28.4005C35.1759 28.8125 36.3919 28.3407 36.8315 27.3465Z" fill="#E9EFFF"/>
<path d="M57.7175 74.0977C59.7676 77.3869 62.8722 79.945 66.6959 81.4959C68.4085 82.1903 70.3722 82.1905 72.0845 81.4959C75.9082 79.945 79.0128 77.3869 81.0629 74.0977C81.1447 73.9667 81.2245 73.8329 81.3046 73.6995C78.0929 72.5325 75.127 70.877 75.127 68.7167C75.127 67.9568 75.127 68.1844 75.127 67.6924C73.7137 68.877 71.29 70.3861 69.2939 70.4314C67.2978 70.3861 64.8742 68.877 63.4608 67.6924C63.4608 69.1051 63.8607 70.8055 59.1245 72.9612C58.5927 73.2033 58.0255 73.4315 57.4434 73.6459C57.5341 73.7973 57.6249 73.949 57.7175 74.0977Z" fill="#FCAD6D"/>
<path d="M63.4608 67.6925C63.4608 69.1053 63.8607 70.8056 59.1245 72.9614C58.5927 73.2034 58.0255 73.4316 57.4434 73.646C57.5341 73.7976 57.6249 73.9493 57.7175 74.098C59.1061 76.326 60.98 78.2171 63.232 79.6883C67.0321 77.0711 68.4811 73.0665 69.034 70.4143C67.091 70.254 64.8136 68.8263 63.4608 67.6925Z" fill="#FD995B"/>
<path d="M48.0005 89.9992C62.2413 89.9992 74.9679 83.9237 83.3941 74.3872C82.5569 74.1364 81.6965 73.8523 80.8614 73.5344C80.7543 73.7147 80.6463 73.8936 80.5366 74.0698C78.5782 77.2119 75.6125 79.6556 71.9598 81.1372C70.3241 81.8006 68.4483 81.8006 66.8122 81.1372C63.1597 79.6558 60.1938 77.2119 58.2354 74.0698C58.1148 73.8762 57.9958 73.6801 57.8786 73.4814C54.0903 74.9453 49.4124 75.7961 49.3927 75.8007C47.6786 76.1092 43.9166 77.2316 41.7729 81.2506C40.9207 82.8485 40.3486 86.5237 39.9922 89.3457C42.5928 89.7744 45.2686 89.9992 48.0005 89.9992Z" fill="#FC90CE"/>
<path d="M60.7038 81.0513C61.787 80.6064 62.7348 80.0624 63.5643 79.4513C61.3854 78.0402 59.5747 76.2187 58.2354 74.07C58.1148 73.8764 57.9958 73.6803 57.8786 73.4816C54.0903 74.9455 49.4124 75.7963 49.3927 75.8009C47.6786 76.1094 43.9166 77.2317 41.7729 81.2508C40.9207 82.8487 40.3486 86.5239 39.9922 89.3459C42.593 89.7748 45.2688 89.9996 48.0007 89.9996C49.4082 89.9996 50.8004 89.9379 52.1757 89.8217C52.2174 84.3493 52.796 84.2997 60.7038 81.0513Z" fill="#F964B2"/>
<path d="M79.547 48.316C79.5411 48.1343 79.529 47.9145 79.5063 47.669C79.4382 47.5769 79.3568 47.4925 79.2616 47.4206C78.9723 47.2025 78.5958 47.1144 78.2313 47.1784C70.234 48.5855 66.4846 45.5132 64.7463 42.6882C64.4288 42.1721 63.8789 41.8613 63.296 41.8105C62.8025 41.9389 62.3491 42.131 61.9375 42.388C59.5942 43.8508 59.2454 47.0209 59.2042 48.316C59.1935 48.6563 59.047 48.9849 58.7806 49.2661C57.3132 50.8163 57.6346 55.3452 57.977 57.2099C58.7352 60.3472 59.8334 63.0827 61.2406 65.3408C62.6693 67.6332 64.8331 69.4159 67.4977 70.4968C68.6913 70.9807 70.0597 70.9807 71.2531 70.4968C73.9178 69.4159 76.0814 67.6332 77.5101 65.3408C78.9173 63.0834 80.0155 60.3477 80.7753 57.2044C81.1041 55.2443 81.4544 50.8343 79.9701 49.2663C79.7041 48.9847 79.5578 48.6562 79.547 48.316Z" fill="#F9BA8F"/>
<path d="M71.0482 65.3405C69.6408 63.0824 68.5426 60.3469 67.7845 57.2097C67.4422 55.345 67.1208 50.8162 68.5882 49.266C68.8544 48.9847 69.0008 48.6564 69.0117 48.316C69.0252 47.8887 69.073 47.257 69.214 46.5501C67.0188 45.6064 65.6249 44.1161 64.7463 42.6882C64.4288 42.1721 63.8789 41.8613 63.2962 41.8105C62.8027 41.9389 62.3493 42.131 61.9375 42.388C59.5942 43.8508 59.2454 47.0211 59.2042 48.316C59.1933 48.6564 59.047 48.9849 58.7806 49.266C57.3132 50.8162 57.6346 55.345 57.977 57.2097C58.735 60.347 59.8334 63.0826 61.2406 65.3405C62.6693 67.6328 64.8331 69.4156 67.4977 70.4965C68.6913 70.9804 70.0597 70.9804 71.2531 70.4965C72.3532 70.0502 73.3664 69.4826 74.2792 68.8106C72.9811 67.855 71.887 66.6864 71.0482 65.3405Z" fill="#FCAD6D"/>
</svg>
