<svg width="96" height="92" viewBox="0 0 96 92" fill="none" xmlns="http://www.w3.org/2000/svg">
<g clip-path="url(#clip0_1_222)">
<path d="M5.20781 64.0147L8.39494 70.2883C11.8556 75.9177 16.584 80.7454 22.2064 84.4085H73.7944C79.5872 80.6345 84.4326 75.625 87.9186 69.7751L90.951 63.6167C92.8794 58.7561 93.9383 53.485 93.9383 47.9761C93.9383 23.6624 73.3712 3.95233 48.0004 3.95233C22.6296 3.95233 2.0625 23.6624 2.0625 47.9761C2.0625 53.6354 3.17794 59.0447 5.20781 64.0147Z" fill="#FFC839"/>
<path d="M70.3653 62.4844C71.5441 63.3618 72.9989 63.8381 74.4974 63.8381C75.9957 63.8381 77.4505 63.3616 78.6294 62.4844C79.499 61.8371 80.4262 60.9567 81.2392 59.8491C81.005 59.7837 80.7685 59.7215 80.5285 59.664C80.2782 59.6038 80.0581 59.4595 79.9162 59.2676C79.2614 58.3823 79.0799 57.0138 79.0445 56.0214C78.5851 56.534 78.103 56.9629 77.6425 57.3056C75.7953 58.6804 73.1971 58.6786 71.3523 57.3056C70.8918 56.9629 70.4097 56.534 69.9504 56.0214C69.9138 57.0359 69.7254 58.4435 69.0344 59.326C68.9165 59.4766 68.7348 59.5997 68.5171 59.6514C68.2602 59.7123 68.0071 59.7793 67.7559 59.8496C68.5687 60.9568 69.4957 61.8373 70.3653 62.4844Z" fill="#FCAD6D"/>
<path d="M71.3503 57.3057C70.8898 56.963 70.4078 56.5341 69.9484 56.0215C69.9118 57.036 69.7234 58.4437 69.0325 59.3261C68.9145 59.4767 68.7328 59.5998 68.5152 59.6515C68.2583 59.7124 68.0052 59.7795 67.7539 59.8497C68.5669 60.9571 69.4939 61.8376 70.3633 62.4847C70.8831 62.8715 71.4567 63.1801 72.0638 63.4047C73.6917 62.0974 74.3473 60.1173 74.5755 58.3332C73.4376 58.3499 72.2952 58.009 71.3503 57.3057Z" fill="#FCAD6D"/>
<path d="M90.9513 63.6165C90.0048 62.8961 88.7797 62.3957 87.1925 62.2714C86.6058 62.2254 86.2936 62.0072 85.6021 61.6336C84.1615 60.8551 82.67 60.2342 81.0445 59.7976C80.2507 60.8912 79.3398 61.7573 78.4868 62.3919C77.3485 63.239 75.9438 63.6991 74.497 63.6991C73.0503 63.6991 71.6455 63.239 70.5072 62.3919C69.6541 61.7569 68.7428 60.8906 67.949 59.7969C66.3305 60.2324 64.8284 60.8572 63.392 61.6336C62.7005 62.0074 62.3883 62.2255 61.8014 62.2714C56.8124 62.6622 55.3872 66.7598 55.0195 69.7751H87.919C89.0885 67.8122 90.1032 65.7539 90.9513 63.6165Z" fill="#FF4155"/>
<path d="M70.4438 64.3309C71.1305 64.0655 71.7089 63.7121 72.196 63.2966C71.5925 63.0785 71.0223 62.7754 70.5072 62.3919C69.6541 61.7569 68.7428 60.8906 67.949 59.7969C66.3305 60.2324 64.8284 60.8572 63.392 61.6336C62.7005 62.0074 62.3883 62.2255 61.8014 62.2714C56.8124 62.6622 55.3872 66.7598 55.0195 69.7751H62.0761C62.2349 64.2853 65.0429 66.4182 70.4438 64.3309Z" fill="#E80054"/>
<path d="M17.448 62.9487C18.6053 63.8098 20.0331 64.2777 21.5041 64.2777C22.9748 64.2777 24.4028 63.81 25.5599 62.9487C26.4207 62.3082 27.3392 61.4351 28.1421 60.3348C27.9417 60.28 27.7399 60.227 27.5352 60.1778C27.2849 60.1178 27.0647 59.9733 26.9228 59.7814C26.2681 58.8961 26.0867 57.5276 26.0511 56.5352C25.5917 57.0478 25.1097 57.4767 24.6492 57.8194C22.8019 59.1942 20.2037 59.1924 18.3589 57.8194C17.8982 57.4767 17.4164 57.0478 16.957 56.5352C16.9204 57.5497 16.732 58.9573 16.041 59.8398C15.9231 59.9904 15.7414 60.1135 15.5237 60.165C15.3019 60.2177 15.0827 60.2743 14.8652 60.3338C15.6681 61.4345 16.587 62.308 17.448 62.9487Z" fill="#FCAD6D"/>
<path d="M21.399 58.8448C20.3228 58.8238 19.2525 58.4834 18.3589 57.8184C17.8982 57.4757 17.4164 57.0468 16.957 56.5342C16.9204 57.5487 16.732 58.9564 16.041 59.8388C15.9231 59.9894 15.7414 60.1125 15.5237 60.1642C15.3019 60.2169 15.0827 60.2735 14.8652 60.333C15.6683 61.4335 16.5872 62.307 17.4482 62.9478C17.7152 63.1465 17.997 63.3231 18.2901 63.4791C20.3462 61.9728 21.1418 60.26 21.399 58.8448Z" fill="#FD995B"/>
<path d="M34.1992 62.7849C33.6125 62.7389 33.3003 62.5208 32.6087 62.1472C31.1681 61.3688 29.6765 60.7478 28.0511 60.3111C27.2572 61.4045 26.3463 62.2708 25.4934 62.9055C24.3551 63.7525 22.9503 64.2127 21.5036 64.2127C20.0568 64.2127 18.6521 63.7525 17.5138 62.9055C16.6607 62.2706 15.7494 61.4042 14.9555 60.3104C13.337 60.746 11.8352 61.3708 10.3985 62.1472C9.70703 62.5209 9.39484 62.7391 8.80797 62.7849C7.30722 62.9024 6.13103 63.357 5.20703 64.015C6.09803 66.1968 7.16716 68.2927 8.39416 70.2887H40.9809C40.6134 67.2733 39.1882 63.1759 34.1992 62.7849Z" fill="#73C3F9"/>
<path d="M10.0794 70.2888C10.1923 65.6313 11.2273 67.4555 16.9428 64.3317C17.4697 64.0436 17.9364 63.7428 18.3519 63.4338C18.0602 63.2792 17.7795 63.1035 17.5138 62.9058C16.6607 62.271 15.7494 61.4045 14.9555 60.3106C13.337 60.7464 11.8352 61.3711 10.3985 62.1474C9.70703 62.5211 9.39484 62.7393 8.80797 62.7851C7.30722 62.9026 6.13103 63.3572 5.20703 64.015C6.09803 66.1968 7.16716 68.2927 8.39416 70.2888H10.0794Z" fill="#4FABF7"/>
<path d="M41.2349 83.2396C43.1652 84.6762 45.5474 85.4564 48.0008 85.4564C50.4541 85.4564 52.8363 84.6762 54.7666 83.2396C56.1852 82.1838 57.6974 80.7483 59.0251 78.944C58.6223 78.8305 58.2155 78.7223 57.802 78.6229C57.3951 78.5252 57.0376 78.2907 56.8068 77.9787C55.7427 76.54 55.448 74.316 55.39 72.7031C54.6436 73.5363 53.8602 74.2332 53.1117 74.7902C50.1098 77.0242 45.8871 77.0214 42.8892 74.7902C42.1407 74.2332 41.3573 73.5363 40.6109 72.7031C40.5516 74.3518 40.2454 76.6394 39.1225 78.0736C38.9309 78.3184 38.6358 78.5183 38.2818 78.6024C37.8408 78.707 37.4069 78.8229 36.9766 78.9446C38.3044 80.7484 39.8164 82.184 41.2349 83.2396Z" fill="#FCAD6D"/>
<path d="M47.6395 76.4568C45.955 76.3873 44.2887 75.8317 42.8892 74.7902C42.1407 74.2332 41.3573 73.5363 40.6109 72.7031C40.5516 74.3518 40.2454 76.6394 39.1225 78.0736C38.9309 78.3184 38.6358 78.5184 38.2818 78.6024C37.8408 78.707 37.4069 78.8229 36.9766 78.9446C38.3043 80.7484 39.8163 82.184 41.2347 83.2396C41.9427 83.7665 42.7118 84.2042 43.5226 84.5483C45.9518 82.2312 47.1068 79.1579 47.6395 76.4568Z" fill="#FD995B"/>
<path d="M66.0479 81.8237C63.707 80.5585 61.2828 79.5495 58.6415 78.8399C57.3515 80.6171 55.871 82.0245 54.485 83.0561C52.6351 84.4329 50.3521 85.1806 48.001 85.1806C45.6498 85.1806 43.367 84.4329 41.5171 83.0561C40.1307 82.0244 38.6498 80.6163 37.3597 78.8389C34.7294 79.5468 32.2885 80.5621 29.954 81.8237C28.8301 82.431 28.3227 82.7855 27.3693 82.8601C25.2897 83.0231 23.5934 83.5842 22.207 84.4085C29.5602 89.1991 38.4389 91.9999 48.0008 91.9999C57.5628 91.9999 66.4415 89.1991 73.7948 84.4085C72.4087 83.5842 70.7123 83.0231 68.6326 82.8601C67.679 82.7855 67.1718 82.431 66.0479 81.8237Z" fill="#3C58A0"/>
<path d="M41.5171 83.0564C40.1307 82.0246 38.6498 80.6166 37.3597 78.8391C34.7294 79.5471 32.2885 80.5623 29.954 81.8239C28.8301 82.4312 28.3227 82.7858 27.3693 82.8603C25.2897 83.0233 23.5934 83.5845 22.207 84.4087C25.7232 86.6994 29.5889 88.5338 33.7105 89.8259C34.8494 89.2461 36.9841 88.5634 40.9823 86.3966C42.058 85.8137 42.9713 85.11 43.7487 84.328C42.9573 83.9956 42.2071 83.5697 41.5171 83.0564Z" fill="#2A428C"/>
<path d="M46.8306 9.99979C46.8306 7.6847 48.8071 5.79061 51.2228 5.79061H72.1349V4.20918C72.1349 1.89409 70.1583 0 67.7425 0H45.0348C42.619 0 40.6426 1.89409 40.6426 4.20918V21.4881C40.6426 23.8032 42.619 25.6973 45.0348 25.6973H46.8305V9.99979H46.8306Z" fill="#4FABF7"/>
<path d="M57.5674 0H45.0348C42.619 0 40.6426 1.89409 40.6426 4.20918V21.4881C40.6426 23.8032 42.619 25.6973 45.0348 25.6973H46.8305V9.99979C46.8305 7.6847 48.8069 5.79061 51.2226 5.79061H57.4743C57.5298 5.61721 57.5674 5.52198 57.5674 5.52198C54.4514 2.53575 57.5674 0 57.5674 0V0Z" fill="#1886EA"/>
<path d="M73.6509 5.52148H50.943C48.5272 5.52148 46.5508 7.41557 46.5508 9.73066V27.0096C46.5508 29.3247 48.5272 31.2188 50.943 31.2188C51.5604 31.2188 51.9026 31.8983 51.525 32.3664C51.1226 32.8652 50.6717 33.3303 50.171 33.7529C49.2369 34.5414 49.7625 36.158 50.9469 36.1544C53.9574 36.1454 56.7789 34.681 58.6991 32.2956C59.2387 31.6252 60.0602 31.2186 60.9437 31.2186H73.6505C76.0663 31.2186 78.0427 29.3245 78.0427 27.0094V9.73066C78.0431 7.41557 76.0667 5.52148 73.6509 5.52148Z" fill="#E9EFFF"/>
<path d="M50.943 5.52166C48.5272 5.52166 46.5508 7.41575 46.5508 9.73084V27.0098C46.5508 29.3249 48.5272 31.219 50.943 31.219C51.5604 31.219 51.9026 31.8985 51.525 32.3666C51.1226 32.8654 50.6717 33.3305 50.171 33.7531C49.2369 34.5416 49.7625 36.1582 50.9469 36.1546C53.9574 36.1456 56.7789 34.6812 58.6991 32.2958C59.2387 31.6254 60.0602 31.2188 60.9437 31.2188H66.6172C59.7922 27.3974 62.7913 20.6638 62.7913 20.6638L61.8993 16.8078C54.699 12.7624 57.5677 5.52148 57.5677 5.52148H50.943V5.52166Z" fill="#BEC8F7"/>
<path d="M55.175 20.7816C56.3092 20.5246 57.0114 19.4352 56.7432 18.3482C56.4751 17.2612 55.3383 16.5884 54.2041 16.8453C53.0699 17.1023 52.3677 18.1917 52.6358 19.2787C52.904 20.3656 54.0408 21.0385 55.175 20.7816Z" fill="#1886EA"/>
<path d="M62.3742 20.7796C63.5084 20.5227 64.2106 19.4332 63.9425 18.3463C63.6744 17.2593 62.5375 16.5864 61.4033 16.8434C60.2691 17.1003 59.567 18.1898 59.8351 19.2767C60.1032 20.3637 61.24 21.0366 62.3742 20.7796Z" fill="#1886EA"/>
<path d="M70.5822 20.267C71.4064 19.4772 71.4064 18.1966 70.5822 17.4068C69.7581 16.617 68.4219 16.617 67.5977 17.4068C66.7736 18.1966 66.7736 19.4772 67.5977 20.267C68.4219 21.0568 69.7581 21.0568 70.5822 20.267Z" fill="#4FABF7"/>
<path d="M45.5283 39.1975C38.1071 40.1665 37.4017 44.1989 37.3983 45.6783C37.3976 45.9886 37.2183 46.2761 36.9271 46.4117C33.0669 48.2115 35.1481 56.885 35.1481 56.885C35.5359 56.9098 36.1173 57.2286 36.42 57.3691C36.494 56.9271 36.615 56.492 36.786 56.0714C36.9161 55.7508 37.0788 55.427 37.2823 55.1212C37.6353 54.5904 37.796 53.9644 37.748 53.3383C37.6093 51.5289 37.5005 48.1317 39.9928 47.057C42.1042 46.1465 44.6943 46.6737 46.346 47.2C47.4187 47.5418 48.5806 47.5418 49.6533 47.2C51.305 46.6737 53.8949 46.1465 56.0066 47.057C58.4919 48.1287 58.3897 51.5086 58.2526 53.3229C58.205 53.9536 58.3614 54.5863 58.7171 55.1212C58.9271 55.4369 59.0938 55.7719 59.2259 56.1023C59.3904 56.5132 59.5072 56.9378 59.5796 57.3691C59.9611 57.1919 60.6819 56.8307 61.1484 56.8938C61.2056 54.9972 61.3882 52.9527 61.3882 52.9527C63.5874 42.6302 53.519 38.154 45.5283 39.1975Z" fill="#2A428C"/>
<path d="M45.5283 39.198C38.1071 40.167 37.4017 44.1994 37.3983 45.6788C37.3976 45.9891 37.2183 46.2766 36.9271 46.4123C33.0669 48.212 35.1481 56.8855 35.1481 56.8855C35.5359 56.9103 36.1173 57.2291 36.42 57.3696C36.494 56.9276 36.615 56.4926 36.786 56.0719C36.9161 55.7513 37.0788 55.4276 37.2823 55.1217C37.6353 54.5909 37.796 53.9649 37.748 53.3389C37.6093 51.5294 37.5005 48.1322 39.9928 47.0575C42.1042 46.147 44.6943 46.6742 46.346 47.2006C46.7979 47.3445 47.2657 47.4241 47.7358 47.4469C47.6638 47.3285 47.5869 47.2108 47.5008 47.0949C44.3171 42.8065 48.7426 39.6815 49.5967 39.1355C48.227 39.0048 46.8493 39.0255 45.5283 39.198Z" fill="#1C2E7A"/>
<path d="M61.8069 57.14C61.2289 56.6324 60.0776 56.8897 59.5796 57.2006C59.6887 57.8514 59.6949 58.5173 59.6006 59.1748L59.0132 63.2751C59.0132 63.6055 59.0023 63.9299 58.9824 64.2486C60.4149 64.6626 61.1265 63.4303 61.2463 62.5845C61.2979 62.2205 61.3822 61.8617 61.4992 61.5114C61.8804 60.3708 63.2552 58.4118 61.8069 57.14Z" fill="#FCAD6D"/>
<path d="M34.1936 57.14C34.7716 56.6324 35.9229 56.8897 36.4207 57.2006C36.3116 57.8514 36.3054 58.5173 36.3997 59.1748L36.9871 63.2751C36.9871 63.6055 36.998 63.9299 37.0181 64.2486C35.5856 64.6626 34.874 63.4303 34.754 62.5845C34.7025 62.2205 34.6181 61.8617 34.5011 61.5114C34.1201 60.3708 32.7453 58.4118 34.1936 57.14Z" fill="#FD995B"/>
<path d="M59.4028 55.9339C59.2706 55.6032 59.1039 55.2685 58.8939 54.9528C58.5382 54.4178 58.3816 53.7853 58.4294 53.1545C58.5665 51.3402 58.493 47.7919 56.0079 46.7202C53.8964 45.8097 51.3067 46.3369 49.655 46.8633C48.5823 47.205 47.4198 47.205 46.3471 46.8633C44.6954 46.3369 42.1055 45.8097 39.9942 46.7202C37.502 47.7949 37.4351 51.3605 37.5738 53.1699C37.6218 53.796 37.4611 54.422 37.1081 54.9528C36.9046 55.2586 36.7419 55.5824 36.6117 55.903C36.1895 56.9426 36.0663 58.07 36.2246 59.174L36.8122 63.2754C36.8122 69.1716 40.0964 73.1792 42.8902 75.2582C44.3484 76.3433 46.148 76.9329 48.0012 76.9329C49.8547 76.9329 51.6541 76.3435 53.1123 75.2582C55.9061 73.1792 59.1903 69.1714 59.1903 63.2754L59.7778 59.1751C59.9339 58.0819 59.8153 56.9653 59.4028 55.9339Z" fill="#F9BA8F"/>
<path d="M51.0493 75.2582C48.2555 73.1792 44.9712 69.1714 44.9712 63.2754L44.3836 59.174C44.2254 58.07 44.3486 56.9426 44.7708 55.903C44.9009 55.5824 45.0637 55.2588 45.2671 54.9528C45.6202 54.422 45.7809 53.7958 45.7329 53.1699C45.6074 51.5339 45.6506 48.4625 47.5021 47.0943C47.1114 47.0586 46.7236 46.9833 46.3471 46.8633C44.6954 46.3369 42.1055 45.8097 39.9942 46.7202C37.502 47.7949 37.4351 51.3605 37.5738 53.1699C37.6218 53.796 37.4611 54.422 37.1081 54.9528C36.9046 55.2586 36.7419 55.5824 36.6117 55.903C36.1895 56.9426 36.0663 58.07 36.2246 59.174L36.8122 63.2754C36.8122 69.1716 40.0964 73.1792 42.8902 75.2582C44.3484 76.3433 46.148 76.9329 48.0012 76.9329C49.4384 76.9329 50.8424 76.5769 52.0809 75.9117C51.722 75.7191 51.3766 75.5018 51.0493 75.2582Z" fill="#FCAD6D"/>
<path d="M72.9764 35.4043C68.4097 36.0007 67.9756 38.482 67.9735 39.3923C67.9732 39.5833 67.8627 39.7601 67.6837 39.8437C65.3082 40.9511 66.5889 46.2885 66.5889 46.2885C66.8274 46.3038 67.1853 46.5 67.3715 46.5865C67.417 46.3144 67.4915 46.0467 67.5967 45.7879C67.6767 45.5906 67.7769 45.3915 67.9021 45.2032C68.1194 44.8765 68.2182 44.4913 68.1888 44.106C68.1035 42.9925 68.0364 40.902 69.5701 40.2408C70.8695 39.6805 72.4632 40.0049 73.4797 40.3288C74.1397 40.5393 74.8548 40.5393 75.5148 40.3288C76.5312 40.0049 78.125 39.6805 79.4243 40.2408C80.9536 40.9002 80.8908 42.9801 80.8064 44.0965C80.777 44.4847 80.8733 44.8739 81.0922 45.203C81.2213 45.3973 81.3239 45.6034 81.4053 45.8068C81.5063 46.0598 81.5783 46.3211 81.6228 46.5863C81.8575 46.4772 82.3012 46.2549 82.5882 46.2939C82.6233 45.1269 82.7358 43.8687 82.7358 43.8687C84.0893 37.5167 77.8936 34.7623 72.9764 35.4043Z" fill="#2A428C"/>
<path d="M72.9764 35.4048C68.4097 36.0012 67.9756 38.4825 67.9735 39.3928C67.9732 39.5838 67.8627 39.7606 67.6837 39.8441C65.3082 40.9516 66.5889 46.289 66.5889 46.289C66.8274 46.3043 67.1853 46.5005 67.3715 46.5869C67.417 46.3149 67.4915 46.0471 67.5967 45.7884C67.6767 45.5911 67.7769 45.3918 67.9021 45.2037C68.1194 44.877 68.2182 44.4918 68.1888 44.1065C68.1035 42.993 68.0363 40.9025 69.5701 40.2413C70.8695 39.681 72.4632 40.0053 73.4797 40.3293C73.7577 40.4179 74.0455 40.4669 74.3348 40.481C74.2904 40.408 74.2432 40.3358 74.1903 40.2644C72.2311 37.6255 74.9543 35.7025 75.4801 35.3665C74.6371 35.2858 73.7892 35.2986 72.9764 35.4048Z" fill="#1C2E7A"/>
<path d="M82.994 46.4455C82.6383 46.1332 81.9297 46.2915 81.6234 46.4827C81.6905 46.8832 81.6942 47.2929 81.6363 47.6976L81.2748 50.2208C81.2748 50.4242 81.268 50.6236 81.2559 50.8198C82.1373 51.0746 82.5753 50.3162 82.649 49.7958C82.6807 49.5717 82.7326 49.3509 82.8046 49.1354C83.0394 48.4336 83.8852 47.2281 82.994 46.4455Z" fill="#FCAD6D"/>
<path d="M66.0007 46.4455C66.3564 46.1332 67.0649 46.2915 67.3713 46.4827C67.3042 46.8832 67.3004 47.2929 67.3584 47.6976L67.7199 50.2208C67.7199 50.4242 67.7266 50.6236 67.7388 50.8198C66.8574 51.0746 66.4194 50.3162 66.3457 49.7958C66.314 49.5717 66.2621 49.3509 66.1901 49.1354C65.9555 48.4336 65.1095 47.2281 66.0007 46.4455Z" fill="#FD995B"/>
<path d="M81.5131 45.7036C81.4317 45.5002 81.3292 45.2941 81.2 45.0998C80.9812 44.7706 80.8848 44.3814 80.9142 43.9933C80.9986 42.8769 80.9534 40.6933 79.424 40.0339C78.1248 39.4736 76.531 39.798 75.5146 40.1219C74.8546 40.3323 74.1393 40.3323 73.4791 40.1219C72.4627 39.7981 70.8689 39.4736 69.5697 40.0339C68.036 40.6951 67.9949 42.8893 68.0802 44.0028C68.1098 44.3881 68.0108 44.7733 67.7935 45.1C67.6683 45.2883 67.5682 45.4874 67.4881 45.6847C67.2282 46.3244 67.1525 47.0182 67.2498 47.6976L67.6113 50.2213C67.6113 53.8495 69.6323 56.3157 71.3513 57.5951C72.2487 58.2628 73.3561 58.6256 74.4965 58.6256C75.637 58.6256 76.7444 58.2628 77.6416 57.5951C79.3608 56.3157 81.3817 53.8495 81.3817 50.2213L81.7432 47.6981C81.8401 47.0252 81.767 46.3382 81.5131 45.7036Z" fill="#F9BA8F"/>
<path d="M76.3722 57.5953C74.653 56.3159 72.6322 53.8497 72.6322 50.2215L72.2707 47.6977C72.1733 47.0183 72.2491 46.3246 72.509 45.6849C72.589 45.4876 72.6892 45.2885 72.8144 45.1002C73.0317 44.7735 73.1305 44.3883 73.1011 44.003C73.0238 42.9962 73.0505 41.1061 74.1899 40.2642C73.9493 40.2423 73.7108 40.1958 73.4791 40.1219C72.4627 39.798 70.8689 39.4736 69.5697 40.0339C68.036 40.6951 67.9949 42.8893 68.0802 44.0028C68.1098 44.3881 68.0108 44.7733 67.7935 45.1C67.6683 45.2883 67.5682 45.4874 67.4881 45.6847C67.2282 46.3244 67.1525 47.0182 67.2498 47.6976L67.6113 50.2213C67.6113 53.8495 69.6323 56.3157 71.3513 57.5951C72.2487 58.2628 73.3561 58.6256 74.4965 58.6256C75.3809 58.6256 76.2449 58.4066 77.0069 57.9973C76.7864 57.8788 76.5738 57.7452 76.3722 57.5953Z" fill="#FCAD6D"/>
<path d="M19.9823 35.917C15.4155 36.5134 14.9815 38.9947 14.9794 39.905C14.979 40.096 14.8686 40.2728 14.6895 40.3564C12.3141 41.4638 13.5947 46.8012 13.5947 46.8012C13.8332 46.8165 14.191 47.0127 14.3773 47.0992C14.4229 46.8271 14.4973 46.5594 14.6025 46.3006C14.6826 46.1033 14.7827 45.9042 14.908 45.7159C15.1253 45.3893 15.2241 45.004 15.1946 44.6188C15.1093 43.5052 15.0422 41.4147 16.576 40.7535C17.8751 40.1932 19.4691 40.5176 20.4855 40.8415C21.1455 41.052 21.8606 41.052 22.5206 40.8415C23.5371 40.5176 25.1308 40.1932 26.4302 40.7535C27.9595 41.4129 27.8966 43.4928 27.8123 44.6092C27.7828 44.9974 27.8792 45.3867 28.098 45.7157C28.2272 45.91 28.3298 46.1161 28.4111 46.3195C28.5122 46.5725 28.5842 46.8338 28.6286 47.099C28.8634 46.9899 29.307 46.7676 29.5941 46.8066C29.6293 45.6396 29.7416 44.3814 29.7416 44.3814C31.095 38.0294 24.8993 35.275 19.9823 35.917Z" fill="#2A428C"/>
<path d="M19.9823 35.9177C15.4155 36.5141 14.9815 38.9954 14.9794 39.9057C14.979 40.0967 14.8686 40.2735 14.6895 40.357C12.3141 41.4645 13.5947 46.8019 13.5947 46.8019C13.8332 46.8172 14.191 47.0134 14.3773 47.0998C14.4229 46.8278 14.4973 46.56 14.6025 46.3013C14.6826 46.104 14.7827 45.9049 14.908 45.7166C15.1253 45.3899 15.2241 45.0047 15.1946 44.6194C15.1093 43.5059 15.0422 41.4154 16.576 40.7542C17.8751 40.1939 19.4691 40.5182 20.4855 40.8422C20.7636 40.9308 21.0514 40.9798 21.3407 40.9937C21.2963 40.9207 21.249 40.8485 21.1962 40.7772C19.237 38.1383 21.9602 36.2153 22.486 35.8792C21.6428 35.7989 20.7951 35.8115 19.9823 35.9177Z" fill="#1C2E7A"/>
<path d="M29.9977 46.9582C29.642 46.6459 28.9335 46.8042 28.6273 46.9954C28.6944 47.3959 28.6981 47.8056 28.6402 48.2103L28.2787 50.7335C28.2787 50.9369 28.272 51.1363 28.2598 51.3325C29.1412 51.5873 29.5792 50.8291 29.6529 50.3085C29.6846 50.0844 29.7365 49.8636 29.8085 49.6481C30.0429 48.9463 30.8889 47.7409 29.9977 46.9582Z" fill="#FCAD6D"/>
<path d="M13.0066 46.9583C13.3623 46.646 14.0709 46.8043 14.3772 46.9955C14.3101 47.396 14.3064 47.8057 14.3643 48.2103L14.7258 50.7335C14.7258 50.9369 14.7325 51.1364 14.7447 51.3326C13.8633 51.5874 13.4253 50.8291 13.3516 50.3086C13.3199 50.0845 13.268 49.8637 13.196 49.6482C12.9612 48.9463 12.1154 47.741 13.0066 46.9583Z" fill="#FD995B"/>
<path d="M28.5191 46.2163C28.4378 46.0129 28.3352 45.8068 28.206 45.6125C27.987 45.2833 27.8908 44.8941 27.9201 44.506C28.0045 43.3896 27.9593 41.206 26.4298 40.5466C25.1306 39.9863 23.5369 40.3107 22.5205 40.6346C21.8605 40.845 21.145 40.845 20.485 40.6346C19.4685 40.3107 17.875 39.9863 16.5756 40.5466C15.042 41.2078 15.0008 43.402 15.0861 44.5155C15.1157 44.9008 15.0167 45.286 14.7994 45.6127C14.6741 45.801 14.574 46.0001 14.494 46.1974C14.2341 46.8371 14.1583 47.5309 14.2556 48.2103L14.6171 50.734C14.6171 54.3622 16.6382 56.8284 18.3572 58.1078C19.2546 58.7755 20.362 59.1383 21.5023 59.1383C22.6429 59.1383 23.7503 58.7755 24.6475 58.1078C26.3666 56.8284 28.3875 54.3624 28.3875 50.734L28.749 48.2108C28.846 47.538 28.7728 46.8509 28.5191 46.2163Z" fill="#F9BA8F"/>
<path d="M23.3781 58.1068C21.6589 56.8274 19.638 54.3614 19.638 50.7329L19.2765 48.2092C19.1792 47.5298 19.255 46.8361 19.5148 46.1964C19.5949 45.9993 19.695 45.8 19.8203 45.6117C20.0376 45.285 20.1364 44.8997 20.107 44.5145C20.0297 43.5077 20.0563 41.6177 21.1958 40.7759C20.9552 40.7538 20.7167 40.7075 20.485 40.6336C19.4685 40.3098 17.875 39.9853 16.5756 40.5456C15.042 41.2068 15.0008 43.401 15.0861 44.5145C15.1157 44.8997 15.0167 45.285 14.7994 45.6117C14.6741 45.8 14.574 45.9991 14.494 46.1964C14.2341 46.8361 14.1583 47.5298 14.2556 48.2092L14.6171 50.7329C14.6171 54.3612 16.6382 56.8274 18.3572 58.1068C19.2546 58.7745 20.362 59.1373 21.5023 59.1373C22.3868 59.1373 23.2508 58.9182 24.0128 58.5089C23.7921 58.3905 23.5795 58.2568 23.3781 58.1068Z" fill="#FCAD6D"/>
</g>
<defs>
<clipPath id="clip0_1_222">
<rect width="96" height="92" fill="white"/>
</clipPath>
</defs>
</svg>
