<svg width="92" height="93" viewBox="0 0 92 93" fill="none" xmlns="http://www.w3.org/2000/svg">
<path d="M46.0004 4.45215C20.6296 4.45215 0.0625 24.1622 0.0625 48.4759C0.0625 59.5387 4.32137 69.6474 11.3524 77.3812L26.1766 88.1998C32.1782 90.9555 38.9011 92.4997 46.0004 92.4997C71.3712 92.4997 91.9383 72.7896 91.9383 48.4759C91.9383 24.1622 71.3712 4.45215 46.0004 4.45215Z" fill="#FFC839"/>
<path d="M48.9748 76.1926L48.8593 75.9903C48.1908 74.8198 48.6431 73.3379 49.8644 72.6973L50.0051 72.6237C48.7256 73.2948 47.1058 72.8407 46.4054 71.6147C45.7051 70.3887 46.1789 68.8364 47.4583 68.1653C46.1787 68.8364 44.5591 68.3823 43.8586 67.1561C43.1583 65.93 43.6321 64.3778 44.9114 63.7065C43.6319 64.3776 42.0121 63.9236 41.3118 62.6974C40.6115 61.4714 41.0853 59.9191 42.3648 59.2477L45.8199 57.4352L45.2932 56.5133C44.9064 55.836 44.2351 55.35 43.4497 55.1782C40.5781 54.5505 37.5971 55.6603 35.9206 57.9809C34.4105 60.13 35.9296 57.5093 32.1016 65.9228C31.8547 66.4841 31.4169 66.9488 30.8592 67.2415L11.3516 77.3814C15.4492 81.8887 20.4882 85.5887 26.1757 88.2001L39.9562 81.0368C40.334 80.8386 40.7542 80.7261 41.1845 80.708L45.3738 80.5317C45.8041 80.5136 46.2243 80.4011 46.6021 80.2029L52.1405 77.2973L51.9624 77.3392C50.8334 77.6822 49.5637 77.2235 48.9748 76.1926Z" fill="#FCAD6D"/>
<path d="M57.0889 74.7564L43.3328 50.6015L33.666 52.7355L48.7151 79.1603C49.9841 81.3764 52.8874 82.187 55.1998 80.9709C57.5121 79.7547 58.3579 76.9725 57.0889 74.7564Z" fill="#3C58A0"/>
<path d="M42.3445 58.7013C41.2789 56.8302 42.3713 54.5013 44.5386 54.0228L45.198 53.8772L43.3326 50.6015L33.666 52.7357L48.7152 79.1605C49.9596 81.3338 52.7758 82.1541 55.0652 81.0377L42.3445 58.7013Z" fill="#2A428C"/>
<path d="M48.6844 76.3438L48.5689 76.1415C47.9003 74.971 48.3527 73.4891 49.5741 72.8483L56.6879 69.1166C57.9092 68.4758 59.4555 68.9094 60.1242 70.0799L60.2397 70.2822C60.9083 71.4527 60.4559 72.9346 59.2345 73.5753L52.1207 77.3071C50.8994 77.9479 49.353 77.5143 48.6844 76.3438Z" fill="#F9BA8F"/>
<path d="M46.1168 71.7662C45.4165 70.54 45.8903 68.9877 47.1698 68.3166L55.6986 63.8425C56.9781 63.1714 58.5979 63.6255 59.2982 64.8515C59.9985 66.0775 59.5247 67.6298 58.2454 68.3011L49.7166 72.7752C48.4369 73.4465 46.8171 72.9922 46.1168 71.7662Z" fill="#F9BA8F"/>
<path d="M43.5699 67.3083C42.8696 66.0821 43.3434 64.5298 44.6227 63.8586L53.6822 59.1063C54.9617 58.4352 56.5815 58.8892 57.2818 60.1152C57.9821 61.3414 57.5083 62.8937 56.229 63.5649L47.1695 68.3172C45.89 68.9884 44.2702 68.5343 43.5699 67.3083Z" fill="#F9BA8F"/>
<path d="M53.6217 56.2403C52.9213 55.0142 51.3015 54.5601 50.022 55.2312L42.076 59.3994C40.7965 60.0705 40.3227 61.6229 41.0232 62.849C41.7235 64.0752 43.3433 64.5293 44.6228 63.858L52.5687 59.6898C53.8482 59.0187 54.322 57.4665 53.6217 56.2403Z" fill="#F9BA8F"/>
<path d="M31.1602 67.0568C31.279 68.6479 31.988 71.1095 35.1543 71.6828C37.2599 72.0641 39.3908 69.5 39.3908 69.5C42.056 65.9318 42.0691 63.2979 41.8883 62.1508C41.8726 62.0514 42.0125 62.0065 42.0629 62.0945L42.7426 63.2844C42.9805 63.7009 43.2918 64.054 43.652 64.3388C44.5057 64.9347 45.6742 65.045 46.6619 64.527C47.5756 64.0476 48.1012 63.1534 48.1244 62.2223C48.1512 61.1514 47.6493 60.6829 45.2941 56.5133C45.1158 56.2013 44.8535 55.8969 44.525 55.6585C44.5238 55.6578 44.5229 55.6569 44.522 55.6561C44.2143 55.4333 43.849 55.2653 43.4508 55.1782C40.5792 54.5505 37.5982 55.6603 35.9217 57.9809C34.4116 60.13 35.9307 57.5093 32.1027 65.9228C31.9019 66.3788 31.574 66.7689 31.1602 67.0568Z" fill="#FCAD6D"/>
<path d="M44.8092 60.9705L46.0208 63.0917C46.3399 63.6503 47.0434 63.8848 47.6479 63.662C47.9457 63.2351 48.1112 62.7345 48.124 62.2223C48.1478 61.2711 47.7334 60.8292 46.5089 58.6406L45.3319 59.258C44.6967 59.5912 44.4616 60.3619 44.8092 60.9705Z" fill="#F9DFCD"/>
<path d="M36.1927 70.7532C36.0147 70.4386 36.0787 70.037 36.3697 69.7888C41.204 65.6668 40.4881 61.0853 40.4804 61.0395C40.4071 60.6097 40.7116 60.2045 41.1601 60.1342C41.6088 60.0642 42.0318 60.3558 42.1046 60.7856C42.1422 61.0075 42.9665 66.2749 37.4637 70.9671C37.1242 71.2565 36.604 71.2274 36.302 70.9022C36.2587 70.8556 36.2223 70.8057 36.1927 70.7532Z" fill="#FD995B"/>
<path d="M29.1048 52.0143L23.6922 29.4959C23.6562 29.3457 23.6399 29.1958 23.639 29.0479C17.2501 30.7821 13.3393 37.0356 14.8462 43.3052C16.3531 49.5749 22.7249 53.5587 29.2614 52.4394C29.1948 52.3061 29.141 52.1645 29.1048 52.0143Z" fill="#E9EFFF"/>
<path d="M16.1641 46.5506C18.7319 50.8811 23.9421 53.3503 29.2617 52.4397C29.1949 52.3063 29.1411 52.1648 29.1049 52.0145L27.4602 45.1718C27.3164 45.1003 27.1679 45.017 27.0149 44.9201C27.0152 44.9201 22.3034 49.6883 16.1641 46.5506Z" fill="#D3DCFB"/>
<path d="M59.321 13.9443C54.3963 19.474 47.9358 23.5215 40.7188 25.6379C40.7277 25.6689 40.7386 25.6991 40.7463 25.7309L46.1589 48.2494C46.1666 48.2812 46.1705 48.3128 46.1767 48.3446C53.6326 47.2219 61.2896 48.1529 68.2424 51.0608L79.8862 55.9303C79.2016 53.0819 68.2531 7.532 67.5684 4.68359L59.321 13.9443Z" fill="#E9EFFF"/>
<path d="M62.8313 10.0025L68.6781 32.6507C69.6314 36.3433 66.5498 39.872 62.5915 39.5877C57.9139 39.2517 51.6342 39.3733 44.8242 41.096C44.8242 41.096 44.7411 41.2951 44.5469 41.5434L46.1588 48.2494C46.1665 48.2812 46.1706 48.3128 46.1766 48.3446C53.6326 47.2219 61.2895 48.1529 68.2424 51.0608L79.8861 55.9303C79.2016 53.0819 68.2531 7.532 67.5683 4.68359L62.8313 10.0025Z" fill="#D3DCFB"/>
<path d="M85.7435 23.9013C80.1531 24.198 76.4785 21.7402 76.4785 21.7402C76.9182 23.5698 79.6694 35.0157 80.1121 36.8573C80.1121 36.8573 82.2944 33.1067 87.4568 31.0297C88.2861 30.696 88.7534 29.8477 88.5514 29.0077L87.6509 25.2608C87.449 24.4208 86.6416 23.8537 85.7435 23.9013Z" fill="#E9EFFF"/>
<path d="M88.0218 26.8044C87.0505 27.1806 86.1906 27.5781 85.4453 27.9691C83.4537 29.0136 80.9735 27.9466 80.4638 25.8263C80.2396 24.8936 80.018 23.9714 79.8323 23.1993C77.7113 22.5632 76.4785 21.7402 76.4785 21.7402C76.9182 23.5698 79.6694 35.0157 80.1121 36.8573C80.1121 36.8573 82.2944 33.1067 87.4568 31.0297C88.2863 30.696 88.7534 29.8477 88.5515 29.0077L88.0218 26.8044Z" fill="#D3DCFB"/>
<path d="M83.0402 59.0452C81.6778 59.346 80.3192 58.5314 80.0053 57.2258L67.0847 3.47089C66.7708 2.16528 67.6208 0.863264 68.9832 0.562467C70.3455 0.26167 71.7042 1.07619 72.018 2.3818L84.9387 56.1368C85.2525 57.4424 84.4026 58.7444 83.0402 59.0452Z" fill="#FF4155"/>
<path d="M84.9376 56.1374L79.835 34.9082C79.636 35.9021 78.8474 36.7398 77.7522 36.9816C76.6289 37.2296 75.509 36.7786 74.8848 35.927L80.0043 57.2263C80.3181 58.5319 81.6768 59.3464 83.0391 59.0456C84.4015 58.745 85.2515 57.4428 84.9376 56.1374Z" fill="#E80054"/>
<path d="M38.5576 24.1191L24.9267 27.1281C23.7798 27.3813 23.0641 28.4776 23.3283 29.5767L28.7408 52.0952C29.005 53.1943 30.149 53.88 31.2959 53.6268L44.9268 50.6178C46.0737 50.3646 46.7894 49.2683 46.525 48.1692L41.1125 25.6507C40.8485 24.5518 39.7045 23.8659 38.5576 24.1191Z" fill="#FF4155"/>
<path d="M41.3725 42.3135L30.6998 44.6695C30.6998 44.6695 29.4269 46.4465 27.0156 44.9202L28.7402 52.0953C29.0044 53.1945 30.1484 53.8801 31.2953 53.627L44.9262 50.6179C46.0731 50.3647 46.7886 49.2685 46.5244 48.1693L44.8244 41.0966C44.8244 41.0966 43.9819 43.1203 41.3725 42.3135Z" fill="#E80054"/>
<path d="M31.8015 27.2286C31.1612 27.2286 30.5824 26.8065 30.4324 26.1832L29.5011 22.3082C29.3267 21.583 29.799 20.8594 30.5557 20.6924C31.3123 20.5244 32.0676 20.978 32.2417 21.7032L33.1731 25.5782C33.3474 26.3034 32.8751 27.027 32.1184 27.1939C32.0122 27.2173 31.9059 27.2286 31.8015 27.2286Z" fill="#BEC8F7"/>
<path d="M28.8233 23.5258C28.183 23.5258 27.6042 23.1037 27.4542 22.4803C27.2798 21.7551 27.7521 21.0315 28.5089 20.8646L32.4749 19.9892C33.2318 19.8215 33.9865 20.2745 34.1609 20.9999C34.3352 21.7251 33.8629 22.4487 33.1062 22.6157L29.1402 23.4911C29.0341 23.5146 28.9279 23.5258 28.8233 23.5258Z" fill="#E9EFFF"/>
<path d="M27.3702 30.8146C27.1958 30.0894 27.6681 29.3658 28.4249 29.1989L36.3569 27.448C37.1136 27.2802 37.8685 27.7335 38.0429 28.4588C38.2172 29.184 37.7449 29.9076 36.9882 30.0745L29.0562 31.8254C28.3011 31.9925 27.5448 31.5411 27.3702 30.8146Z" fill="#CC0053"/>
<path d="M28.4796 35.4326C28.3052 34.7074 28.7775 33.9838 29.5343 33.8168L37.4663 32.0659C38.223 31.8988 38.9779 32.3515 39.1523 33.0767C39.3266 33.8019 38.8543 34.5255 38.0976 34.6925L30.1656 36.4433C29.4107 36.6104 28.6541 36.1591 28.4796 35.4326Z" fill="#CC0053"/>
<path d="M29.589 40.051C29.4146 39.3258 29.8867 38.6022 30.6436 38.4353L38.5756 36.6842C39.3326 36.5171 40.0873 36.9698 40.2616 37.695C40.436 38.4202 39.9639 39.1438 39.2069 39.3107L31.275 41.0618C30.5201 41.2289 29.7637 40.7775 29.589 40.051Z" fill="#CC0053"/>
<path d="M30.7003 44.6692C30.5259 43.944 30.998 43.2204 31.755 43.0534L39.687 41.3024C40.4439 41.1349 41.1988 41.5879 41.373 42.3131C41.5473 43.0383 41.0752 43.7619 40.3183 43.9289L32.3863 45.6799C31.6314 45.847 30.8748 45.3958 30.7003 44.6692Z" fill="#CC0053"/>
<path d="M31.8096 49.2883C31.6353 48.5631 32.1076 47.8395 32.8643 47.6725L40.7963 45.9216C41.5527 45.7538 42.3081 46.207 42.4823 46.9324C42.6567 47.6576 42.1844 48.3812 41.4276 48.5481L33.4956 50.299C32.7408 50.4661 31.9842 50.0149 31.8096 49.2883Z" fill="#CC0053"/>
<path d="M39.9562 81.037C27.1842 79.6576 31.1596 67.0572 31.1596 67.0566C31.0636 67.1235 30.9643 67.1866 30.8592 67.2417L11.3516 77.3817C15.4492 81.8889 20.4883 85.5889 26.1759 88.2003L39.9562 81.037Z" fill="#FD995B"/>
</svg>
