<svg width="49" height="47" viewBox="0 0 49 47" fill="none" xmlns="http://www.w3.org/2000/svg">
<path d="M49 23.5C49 10.5213 38.031 0 24.5 0C10.969 0 0 10.5213 0 23.5C0 36.4787 10.969 47 24.5 47C38.031 47 49 36.4787 49 23.5Z" fill="#FF0209"/>
<path d="M34.9004 33.9083C34.1704 33.9843 33.4232 33.9975 32.707 33.9959C27.1205 33.9909 21.5339 33.986 15.949 33.9827C14.1913 33.9827 12.2769 33.9282 10.9185 32.8564C9.38804 31.646 9.06955 29.5472 8.94559 27.6482C8.77343 25.0457 8.75966 22.4349 8.90083 19.8308C8.9783 18.4008 9.1143 16.936 9.75646 15.6414C10.2178 14.7117 10.9874 13.8761 11.9721 13.4369C13.117 12.9266 14.3152 13.0174 15.5479 13.0158C18.4987 13.0125 21.4495 13.0108 24.4003 13.0075C27.4682 13.0042 30.5378 13.0026 33.6057 12.9993C35.0553 12.9993 36.6116 13.0273 37.7944 13.8315C39.3214 14.8686 39.7363 16.8419 39.9274 18.627C40.2803 21.9148 40.2855 25.2372 39.9412 28.525C39.7983 29.8808 39.5607 31.3141 38.6293 32.3429C37.7065 33.3634 36.3379 33.7564 34.9021 33.9067L34.9004 33.9083Z" fill="white"/>
<path d="M29.4955 23.4999L21.1699 18.8894V28.1104L29.4955 23.4999Z" fill="#FF0209"/>
</svg>
